<?xml version="1.0" encoding="utf-8"?>
<svg id="LINCOLN_1" xmlns="http://www.w3.org/2000/svg" viewBox="0 0 1088 625">
  <defs><style>.st0{fill:#000000}.st1{fill:#AF1D2F}.st2{fill:#FFFFFF}</style></defs>
  <path d="M 68.5 135 L 887.5 135 Q 908.1 138.4 918 152.5 L 924 163.5 L 926 171.5 L 926 275 L 1020.5 275 Q 1041.1 278.9 1051 293.5 Q 1056.1 300.4 1058 310.5 L 1058 454.5 Q 1053.9 471.9 1041.5 481 L 1033.5 486 L 1019.5 490 L 204.5 490 Q 183.9 486.6 174 472.5 Q 168.3 465.7 166 455.5 L 166 343 L 65.5 343 Q 46.5 339 37 325.5 Q 31 317.5 29 305.5 L 29 173.5 L 34 157.5 L 44.5 145 L 56.5 138 L 68.5 135 Z M 71 145 L 62 147 L 54 151 L 43 163 L 39 176 L 39 303 L 41 312 L 46 321 Q 54 330 68 333 L 176 333 L 176 453 Q 178 462 183 468 L 192 475 L 208 480 L 1017 480 L 1029 477 L 1037 472 Q 1045 465 1048 453 L 1048 313 L 1042 299 Q 1034 288 1019 285 L 916 285 L 916 174 Q 914 163 908 157 L 897 148 L 885 145 L 71 145 Z " class="st2" />
  <path d="M 427.5 178 L 463.5 178 Q 465 180.5 470.5 179 Q 483.1 181.4 489 190.5 L 494 202.5 L 495 222 L 462.5 222 L 462 221.5 L 462 214.5 L 457.5 208 L 452.5 206 L 431.5 206 L 424 209 L 421 214.5 L 420 219.5 L 420 260.5 L 422 268.5 L 426.5 273 L 432.5 275 L 452.5 275 L 460 270.5 Q 463.8 265.7 462 256 L 495 256 L 495 274.5 Q 492.9 287.4 484.5 294 L 474.5 300 L 461.5 303 L 425.5 303 L 407.5 299 Q 399.8 295.8 395 289.5 L 390 280.5 L 387 266.5 L 387 214.5 L 390 201.5 Q 393.5 192.5 400.5 187 L 409.5 182 L 427.5 178 Z " class="st2" />
  <path d="M 550.5 178 L 581.5 178 Q 583 180.5 588.5 179 L 605.5 185 L 615 193.5 L 620 202.5 L 623 216.5 L 623 264.5 L 620 278.5 Q 616.5 287.5 609.5 293 L 603.5 297 L 587.5 302 Q 581.3 300.3 579.5 303 L 551.5 303 L 532.5 299 Q 522.2 294.8 516 286.5 L 512 279.5 L 509 268.5 L 509 212.5 Q 511.4 197.4 520.5 189 L 532.5 182 L 550.5 178 Z M 554 206 L 546 209 L 542 219 L 542 262 L 544 269 Q 547 273 554 275 L 578 275 L 584 273 L 589 266 Q 588 260 590 259 L 590 222 L 587 212 Q 584 207 579 206 L 554 206 Z " class="st2" />
  <path d="M 91 179 L 124 179 L 124 274 L 175 274 L 175 302 L 91 302 L 91 179 Z " class="st2" />
  <path d="M 192 179 L 223.5 179 L 224 179.5 L 224 302 L 192.5 302 L 192 301.5 L 192 179 Z " class="st2" />
  <path d="M 244 179 L 298.5 179 L 300 180.5 L 332 265.5 L 334 274 L 337 273.5 L 337 244.5 L 336 243.5 L 336 196.5 L 335 195.5 L 335 179 L 366.5 179 L 367 179.5 L 367 302 L 311.5 302 L 311 299.5 L 277 207 L 274 207.5 L 274 220.5 L 275 221.5 L 275 268.5 L 276 269.5 L 276 302 L 244.5 302 L 244 301.5 L 244 179 Z " class="st2" />
  <path d="M 638 179 L 670 179 L 670 274 L 723 274 L 723 302 L 638 302 L 638 179 Z " class="st2" />
  <path d="M 738 179 L 792.5 179 L 794 180.5 L 828 274 L 831 273.5 L 831 256.5 L 830 255.5 L 830 208.5 L 829 207.5 L 829 179 L 860.5 179 L 861 179.5 L 861 302 L 805.5 302 L 805 299.5 L 771 207 L 768 207.5 L 768 232.5 L 769 233.5 L 769 280.5 L 770 281.5 L 770 302 L 738.5 302 L 738 301.5 L 738 179 Z " class="st2" />
  <path d="M 582.5 357 L 610.5 359 Q 619.6 360.9 624 367.5 L 628 377.5 L 629 390 L 601.5 390 Q 600.4 389.9 601 384.5 L 596.5 379 L 593.5 378 L 574.5 378 L 567 383.5 L 566 386.5 L 566 420.5 L 571.5 428 L 574.5 429 L 594.5 429 L 599 427 Q 602.1 423.2 601 415 L 629 415 L 629 424.5 L 626 435.5 L 619.5 443 Q 613.5 447.5 604.5 449 L 580.5 450 L 579.5 449 L 565.5 449 L 556.5 447 L 545 439.5 L 540 430.5 L 538 420.5 L 538 387.5 L 541 374.5 L 548.5 365 L 562.5 359 L 581.5 358 L 582.5 357 Z " class="st2" />
  <path d="M 912.5 357 L 939.5 359 Q 947.7 360.8 952 366.5 Q 958.1 375.1 957 390 L 930.5 390 Q 929.3 389.8 930 383.5 L 928 380 L 923.5 378 L 904.5 378 L 898 382.5 L 896 387.5 L 896 418.5 L 898 424.5 L 900.5 427 L 904.5 429 L 923.5 429 L 929 425.5 L 930 415 L 957 415 L 957 427.5 Q 955.4 436.1 951 441 L 943.5 446 L 933.5 449 L 910.5 450 L 909.5 449 L 890.5 448 Q 880.4 445.6 875 438.5 L 871 430.5 L 870 419.5 L 869 418.5 L 869 388.5 L 872 374.5 L 880.5 364 L 892.5 359 L 911.5 358 L 912.5 357 Z " class="st2" />
  <path d="M 279 358 L 351.5 358 L 352 358.5 L 352 377 L 305 377 L 305 395 L 349 395 L 349 411 L 305 411 L 305 430 L 353 430 L 353 449 L 279 449 L 279 358 Z " class="st2" />
  <path d="M 369 358 L 395 358 L 395 429 L 438 429 L 438 449 L 369 449 L 369 358 Z " class="st2" />
  <path d="M 452 358 L 524.5 358 L 525 358.5 L 525 377 L 479 377 L 479 395 L 522 395 L 522 411 L 479 411 L 479 430 L 526 430 L 526 449 L 452 449 L 452 358 Z " class="st2" />
  <path d="M 635 358 L 714.5 358 L 715 358.5 L 715 378 L 687 378 L 687 449 L 661 449 L 661 378.5 L 660.5 378 L 635 378 L 635 358 Z " class="st2" />
  <path d="M 726 358 L 782.5 358 L 797.5 361 L 805 366.5 Q 812.6 376.4 810 396.5 L 808 403.5 L 801.5 410 L 791 413 Q 789.7 416.3 794.5 415 Q 803 416.5 807 422.5 L 809 426.5 L 809 449 L 784 449 L 784 433.5 L 779.5 426 L 777.5 425 L 751 425 L 751 449 L 726 449 L 726 358 Z M 751 378 L 751 404 L 779 404 L 781 403 L 784 398 Q 786 388 783 383 L 780 379 L 775 378 L 751 378 Z " class="st2" />
  <path d="M 826 358 L 853.5 358 L 854 358.5 L 854 449 L 826.5 449 L 826 448.5 L 826 358 Z " class="st2" />
  <path d="M 70.5 145 L 884.5 145 L 896.5 148 L 908 156.5 Q 913.9 163.1 916 173.5 L 916 304.5 Q 913.3 319.8 902.5 327 Q 896.5 331.5 887.5 333 L 67.5 333 Q 53.5 330 46 320.5 L 41 311.5 L 39 302.5 L 39 175.5 L 43 162.5 L 53.5 151 L 61.5 147 L 70.5 145 Z M 428 178 L 410 182 L 401 187 Q 393 192 390 202 L 387 215 L 387 267 L 390 281 L 395 290 Q 400 296 408 299 L 426 303 L 462 303 L 475 300 L 485 294 Q 493 287 495 275 L 495 256 L 462 256 Q 464 266 460 271 L 453 275 L 433 275 L 427 273 L 422 269 L 420 261 L 420 220 L 421 215 L 424 209 L 432 206 L 453 206 L 458 208 L 462 215 L 462 222 L 463 222 L 495 222 L 494 203 L 489 191 Q 483 181 471 179 Q 465 181 464 178 L 428 178 Z M 551 178 L 533 182 L 521 189 Q 511 197 509 213 L 509 269 L 512 280 L 516 287 Q 522 295 533 299 L 552 303 L 580 303 Q 581 300 588 302 L 604 297 L 610 293 Q 617 288 620 279 L 623 265 L 623 217 L 620 203 L 615 194 L 606 185 L 589 179 Q 583 181 582 178 L 551 178 Z M 91 179 L 91 302 L 175 302 L 175 274 L 124 274 L 124 179 L 91 179 Z M 192 179 L 192 302 L 193 302 L 224 302 L 224 180 L 224 179 L 192 179 Z M 244 179 L 244 302 L 245 302 L 276 302 L 276 270 L 275 269 L 275 222 L 274 221 L 274 208 L 277 207 L 311 300 L 312 302 L 367 302 L 367 180 L 367 179 L 335 179 L 335 196 L 336 197 L 336 244 L 337 245 L 337 274 L 334 274 L 332 266 L 300 181 L 299 179 L 244 179 Z M 638 179 L 638 302 L 723 302 L 723 274 L 670 274 L 670 179 L 638 179 Z M 738 179 L 738 302 L 739 302 L 770 302 L 770 282 L 769 281 L 769 234 L 768 233 L 768 208 L 771 207 L 805 300 L 806 302 L 861 302 L 861 180 L 861 179 L 829 179 L 829 208 L 830 209 L 830 256 L 831 257 L 831 274 L 828 274 L 794 181 L 793 179 L 738 179 Z " class="st0" />
  <path d="M 553.5 206 L 578.5 206 Q 584.3 207.3 587 211.5 L 590 221.5 L 590 258.5 Q 587.5 260 589 265.5 L 583.5 273 L 577.5 275 L 553.5 275 Q 547 273.5 544 268.5 L 542 261.5 L 542 218.5 L 546 209 L 553.5 206 Z " class="st0" />
  <path d="M 953.5 227 Q 966.9 227.1 972 235.5 L 975 243.5 L 975 249.5 Q 973.5 257.1 968.5 261 Q 963.2 266.7 950.5 265 Q 942.9 263.1 939 257.5 Q 934.8 252.7 936 242.5 Q 937.6 233.6 944.5 230 L 953.5 227 Z M 955 232 L 948 235 L 962 236 Q 966 238 964 246 L 960 249 L 965 256 L 967 254 L 969 248 L 966 238 Q 962 233 955 232 Z M 948 235 Q 943 238 942 244 Q 941 250 944 254 L 948 257 L 948 235 Z M 953 240 L 953 244 Q 958 245 959 243 L 959 240 L 953 240 Z M 954 248 L 953 257 L 948 258 L 953 260 Q 960 261 963 258 L 960 257 L 954 248 Z " class="st0" />
  <path d="M 916 285 L 1018.5 285 Q 1034.1 287.9 1042 298.5 L 1048 312.5 L 1048 452.5 Q 1045.3 465.3 1036.5 472 L 1028.5 477 L 1016.5 480 L 207.5 480 L 191.5 475 L 183 467.5 Q 177.7 461.8 176 452.5 L 176 333 L 887.5 333 Q 902.8 330.3 910 319.5 L 914 312.5 L 916 304.5 L 916 285 Z M 583 357 L 582 358 L 563 359 L 549 365 L 541 375 L 538 388 L 538 421 L 540 431 L 545 440 L 557 447 L 566 449 L 580 449 L 581 450 L 605 449 Q 614 448 620 443 L 626 436 L 629 425 L 629 415 L 601 415 Q 602 423 599 427 L 595 429 L 575 429 L 572 428 L 566 421 L 566 387 L 567 384 L 575 378 L 594 378 L 597 379 L 601 385 Q 600 390 602 390 L 629 390 L 628 378 L 624 368 Q 620 361 611 359 L 583 357 Z M 913 357 L 912 358 L 893 359 L 881 364 L 872 375 L 869 389 L 869 419 L 870 420 L 871 431 L 875 439 Q 880 446 891 448 L 910 449 L 911 450 L 934 449 L 944 446 L 951 441 Q 955 436 957 428 L 957 415 L 930 415 L 929 426 L 924 429 L 905 429 L 901 427 L 898 425 L 896 419 L 896 388 L 898 383 L 905 378 L 924 378 L 928 380 L 930 384 Q 929 390 931 390 L 957 390 Q 958 375 952 367 Q 948 361 940 359 L 913 357 Z M 279 358 L 279 449 L 353 449 L 353 430 L 305 430 L 305 411 L 349 411 L 349 395 L 305 395 L 305 377 L 352 377 L 352 359 L 352 358 L 279 358 Z M 369 358 L 369 449 L 438 449 L 438 429 L 395 429 L 395 358 L 369 358 Z M 452 358 L 452 449 L 526 449 L 526 430 L 479 430 L 479 411 L 522 411 L 522 395 L 479 395 L 479 377 L 525 377 L 525 359 L 525 358 L 452 358 Z M 635 358 L 635 378 L 661 378 L 661 379 L 661 449 L 687 449 L 687 378 L 715 378 L 715 359 L 715 358 L 635 358 Z M 726 358 L 726 449 L 751 449 L 751 425 L 778 425 L 780 426 L 784 434 L 784 449 L 809 449 L 809 427 L 807 423 Q 803 416 795 415 Q 790 416 791 413 L 802 410 L 808 404 L 810 397 Q 813 376 805 367 L 798 361 L 783 358 L 726 358 Z M 826 358 L 826 449 L 827 449 L 854 449 L 854 359 L 854 358 L 826 358 Z " class="st1" />
  <path d="M 751 378 L 774.5 378 L 779.5 379 L 783 382.5 Q 785.5 388 784 397.5 L 780.5 403 L 778.5 404 L 751 404 L 751 378 Z " class="st1" />
</svg>