<?xml version="1.0" encoding="UTF-8"?>
<svg id="Capa_1" xmlns="http://www.w3.org/2000/svg" version="1.1" viewBox="0 0 595.28 342">
  <!-- Generator: Adobe Illustrator 30.2.1, SVG Export Plug-In . SVG Version: 2.1.1 Build 1)  -->
  <defs>
    <style>
      .st0 {
        fill: #fbbd00;
      }

      .st1 {
        fill: #1d1d1b;
      }
    </style>
  </defs>
  <polygon class="st0" points="533.23 249.13 63.77 249.13 63.77 73.43 533.23 73.43 533.23 249.13 533.23 249.13"/>
  <path class="st1" d="M103.68,208.39h389.61v-7.38H103.68v7.38h0ZM218.25,155.44v-14.8h-39.44v56.51h39.44v-14.64h-19.09v-6.13h16.62v-14.8h-16.62v-6.13h19.09ZM145.67,161.11c0,10.92-5.64,14.51-14.17,14.51h-2.12v-29.7h2.18c8.53,0,14.11,3.2,14.11,15.19h0ZM103.7,125.25v71.9h33.55c20.52,0,35.83-11.21,35.83-35.81s-15.82-36.09-35.7-36.09h-33.68ZM485.79,190.92v-1.94h1.31c.74,0,1.56.05,1.56.93,0,1.02-.67,1.01-1.56,1.01h-1.31ZM489.51,194.1l-1.51-2.26c1.02-.12,1.71-.75,1.71-1.98,0-1.04-.81-1.81-2.45-1.81h-2.6v6.05h1.13v-2.17h.97l1.28,2.17h1.47ZM434.2,125.26v20.34h15.97v51.55h27.13v-51.55h16.02v-20.34h-59.12ZM482.14,191.16c0-2.79,2.1-4.89,4.8-4.89s4.77,2.1,4.77,4.89-2.11,4.93-4.77,4.93-4.8-2.09-4.8-4.93h0ZM492.89,191.16c0-3.38-2.74-5.87-5.95-5.87s-5.98,2.49-5.98,5.87,2.74,5.91,5.98,5.91,5.95-2.49,5.95-5.91h0ZM325.65,125.25h0s0,0,0,0h0ZM493.32,114.17H103.69v7.39h389.63v-7.39h0ZM351.19,149.28l4.51,20.94h-9.23l4.72-20.94h0ZM342.77,186.21h16.62l2.71,10.94h26.5l-22.81-71.9h-29.76l-23.4,71.9h27.67l2.47-10.94h0ZM393.55,125.26v71.89h49.26v-21.43h-22.17v-50.46h-27.09ZM291.79,160.35l-8.01-35.1h-23.4l-7.55,35.1-7.22-35.1h-26.44l19.76,71.9h24.55l8.25-35.08,8.47,35.08h25.14l20.31-71.9h-26.47l-7.39,35.1h0Z"/>
</svg>