<?xml version="1.0" encoding="utf-8"?>
<svg id="MILWAUKEE_1" xmlns="http://www.w3.org/2000/svg" viewBox="0 0 1088 625">
  <defs><style>.st0{fill:#CD162D}</style></defs>
  <path d="M 791.5 85 L 799 85 L 799 89.5 L 798 90.5 L 798 97.5 L 797 98.5 L 797 105.5 L 796 106.5 L 796 113.5 L 795 114.5 L 795 121.5 L 794 122.5 L 794 129.5 L 793 130.5 L 790 160 L 829.5 127 L 854.5 124 L 848.5 131 L 802.5 173 L 801 173 L 824.5 220 L 839 206.5 L 846 149.5 L 848.5 147 L 881.5 120 L 916 160.5 L 920 167 L 873 192.5 L 871 207.5 L 879.5 215 L 881.5 215 L 922 193 L 924 180.5 L 924 173.5 L 925 172.5 L 925 165.5 L 926 164.5 L 926 157.5 L 927 156.5 L 927 149.5 L 928 148.5 L 928 141.5 L 929 140.5 L 929 133.5 L 936.5 126 L 959.5 106 L 962.5 105 L 997 148.5 L 954 173 L 952 187.5 L 961.5 195 L 1008.5 168 L 1009 173.5 Q 1006.3 175.3 1008 181.5 L 1006.5 183 L 950.5 216 L 946.5 217 L 930.5 203 L 864.5 239 L 843.5 221 L 809.5 253 L 786 206.5 L 786 204 L 784 204.5 L 784 211.5 L 783 212.5 L 783 220.5 L 782 221.5 L 778 260 L 753.5 241 L 721.5 275 L 700.5 257 L 697.5 256 L 673.5 287 L 650 268 L 626 301 L 619.5 297 L 601.5 281 L 573.5 316 L 543 290.5 L 543 282.5 L 544 281.5 L 545 266.5 L 547 258.5 L 551 219.5 L 583.5 178 L 605 188 L 606 182 L 639 175 L 638 178.5 L 638 185.5 L 637 186.5 L 637 193.5 L 636 194.5 L 636 201.5 L 635 202.5 L 635 209.5 L 634 210.5 L 634 217.5 L 633 218.5 L 633 225.5 L 632 226.5 L 628 262.5 L 633.5 268 L 636 265.5 L 648 249.5 L 651 222.5 L 652 221.5 L 652 214.5 L 653 213.5 L 653 206.5 L 654 205.5 L 654 198.5 L 655 197.5 L 655 190.5 L 656 189.5 L 656 182.5 L 657 181.5 L 657 174.5 L 658 171 L 691 165 L 680 248.5 L 685.5 253 L 699 237.5 L 700 234.5 L 700 227.5 L 701 226.5 L 703 204.5 L 705 196.5 L 707 173.5 L 708 172.5 L 709 161.5 L 710.5 160 L 742 153 L 731 237.5 L 734.5 241 L 741 234.5 L 751 223.5 L 753 218.5 L 753 211.5 L 754 210.5 L 754 203.5 L 755 202.5 L 755 195.5 L 756 194.5 L 756 187.5 L 757 186.5 L 757 179.5 L 758 178.5 L 758 171.5 L 761 154.5 L 761 146.5 L 762 145.5 L 768 90.5 L 769 88 L 776.5 88 L 791.5 85 Z M 960 132 L 957 146 L 957 153 L 956 154 L 957 156 L 971 148 L 970 145 L 960 132 Z M 879 149 L 876 164 L 876 171 L 875 172 L 876 174 L 892 165 L 879 149 Z M 588 194 L 586 198 L 582 237 L 580 245 L 578 268 L 577 269 L 577 276 L 583 281 L 596 264 L 596 257 L 597 256 L 599 234 L 600 233 L 603 203 L 588 194 Z " class="st0" />
  <path d="M 989.5 91 Q 1000.3 90.3 1004 96.5 Q 1007.5 100.5 1006 109.5 L 999.5 117 Q 996 119.5 988.5 118 Q 982.4 116.6 980 111.5 L 979 100.5 L 983.5 94 L 989.5 91 Z M 993 94 L 987 97 L 997 97 L 999 100 Q 1000 106 996 107 L 1000 112 L 1003 106 L 1000 97 L 993 94 Z M 987 97 L 983 102 L 984 111 L 987 113 L 987 97 Z M 990 100 L 990 103 Q 995 104 996 102 Q 995 99 990 100 Z M 990 106 L 990 113 L 987 114 L 990 115 Q 996 116 998 114 L 997 113 L 993 108 L 990 106 Z " class="st0" />
  <path d="M 170.5 143 Q 172.8 142.3 172 144.5 L 171 145.5 L 171 153.5 L 170 154.5 L 170 163.5 L 169 164.5 L 169 173.5 L 168 174.5 L 168 183.5 L 167 184.5 Q 168.5 192 166 195.5 L 170.5 192 L 205.5 163 L 225.5 185 L 271.5 146 L 295 171.5 L 295 179.5 L 294 180.5 L 294 188.5 L 293 189.5 L 293 197.5 L 291 206.5 L 287 248.5 L 286 249.5 L 283 283.5 L 281 292.5 L 281 300.5 L 280 301.5 L 280 309.5 L 278 318.5 L 275 352.5 L 273 361.5 L 272 378.5 L 269.5 390 L 238 366.5 L 239 365.5 L 239 357.5 L 241 348.5 L 241 340.5 L 243 331.5 L 243 323.5 L 245 314.5 L 245 306.5 L 247 297.5 L 247 289.5 L 249 280.5 L 249 272.5 L 250 271.5 L 250 263.5 L 252 254.5 L 252 246.5 L 254 237.5 L 254 229.5 L 256 220.5 L 259 188.5 L 253.5 184 L 228 206.5 L 204 413 L 195.5 408 L 172 389.5 L 177 343.5 L 178 342.5 L 178 334.5 L 180 325.5 L 180 317.5 L 182 308.5 L 182 300.5 L 185 283.5 L 185 275.5 L 187 266.5 L 187 258.5 L 189 249.5 L 189 241.5 L 191 232.5 L 191 224.5 L 194 207.5 L 188.5 202 L 185.5 205 L 162 224.5 L 159 251.5 L 158 252.5 L 158 259.5 L 157 260.5 L 157 267.5 L 156 268.5 L 156 275.5 L 155 276.5 L 155 283.5 L 154 284.5 L 154 291.5 L 153 292.5 L 153 299.5 L 152 300.5 L 152 307.5 L 151 308.5 L 151 315.5 L 150 316.5 L 150 323.5 L 149 324.5 L 149 331.5 L 148 332.5 L 148 339.5 L 147 340.5 L 147 347.5 L 146 348.5 L 146 355.5 L 145 356.5 L 145 363.5 L 144 364.5 L 144 371.5 L 143 372.5 L 143 379.5 L 142 380.5 L 142 387.5 L 141 388.5 L 141 395.5 L 140 396.5 L 140 403.5 L 139 404.5 L 139 411.5 L 138 412.5 L 138 419.5 L 137 420.5 L 137 427.5 L 136 428.5 L 136 435.5 L 134.5 437 L 104 414.5 L 105 397.5 L 107 388.5 L 107 380.5 L 110 363.5 L 110 355.5 L 112 346.5 L 112 338.5 L 115 321.5 L 115 313.5 L 117 304.5 L 117 296.5 L 120 279.5 L 120 271.5 L 121 270.5 L 127 215.5 L 125.5 216 L 35 259 L 36.5 256 L 170.5 143 Z " class="st0" />
  <path d="M 396.5 153 L 403 153 L 403 157.5 L 402 158.5 L 402 165.5 L 401 166.5 L 401 173.5 L 400 174.5 L 400 181.5 L 399 182.5 L 399 189.5 L 398 190.5 L 398 197.5 L 395 214.5 L 395 222.5 L 394 223.5 L 394 230.5 L 393 231.5 L 393 238.5 L 392 239.5 L 385 302.5 L 384 303.5 L 384 311.5 L 382 320.5 L 390.5 328 L 404 310.5 L 409 265.5 L 410 264.5 L 411 248.5 L 412 247.5 L 412 240.5 L 413 239.5 L 414 223.5 L 415 221 L 448 214 L 436 312.5 L 445.5 321 L 455 308.5 L 455 301.5 L 457 293.5 L 457 286.5 L 458 285.5 L 458 278.5 L 459 277.5 L 459 270.5 L 460 269.5 L 460 262.5 L 461 261.5 L 461 254.5 L 462 253.5 L 462 246.5 L 463 245.5 L 463 238.5 L 464 237.5 L 464 230.5 L 465 229.5 L 465 222.5 L 467 211 L 500 203 L 498 223.5 L 497 224.5 L 497 231.5 L 496 232.5 L 496 239.5 L 495 240.5 L 495 247.5 L 494 248.5 L 494 255.5 L 492 263.5 L 492 270.5 L 491 271.5 L 491 278.5 L 490 279.5 L 490 286.5 L 489 287.5 L 489 294.5 L 488 298 L 499.5 307 L 507 297.5 L 507 290.5 L 508 289.5 L 513 243.5 L 515 235.5 L 517 212.5 L 518 211.5 L 519 200.5 L 520.5 199 L 546 194 L 533 290.5 L 491.5 336 L 469.5 317 L 466.5 316 L 437.5 354 L 407.5 328 L 379.5 366 L 350.5 343 L 322.5 380 L 294 359 L 294 350.5 L 295 349.5 L 295 342.5 L 298 326.5 L 298 319.5 L 299 318.5 L 299 311.5 L 301 303.5 L 301 296.5 L 302 295.5 L 302 288.5 L 304 280.5 L 304 273.5 L 305 272.5 L 308 243 L 342 236 L 341 238.5 L 337 274.5 L 336 275.5 L 334 296.5 L 331 311.5 L 331 318.5 L 329 326.5 L 329 333.5 L 328 334.5 L 335.5 341 L 350 321.5 L 352 315.5 L 352 308.5 L 353 307.5 L 354 291.5 L 355 290.5 L 355 283.5 L 358 266.5 L 358 258.5 L 361 241.5 L 361 233.5 L 364 216.5 L 364 208.5 L 367 191.5 L 370 158 L 396.5 153 Z " class="st0" />
  <path d="M 341.5 187 Q 348.5 185.5 348 188.5 L 346 196.5 L 344 217.5 L 342.5 219 L 311 224 L 314 192 L 341.5 187 Z " class="st0" />
  <path d="M 1050.5 227 L 1053 227.5 L 696 408 L 696 405.5 L 717 366.5 L 714.5 366 L 325.5 511 L 326 509.5 L 350 462 L 35.5 540 L 35.5 539 L 456.5 377 L 457 379.5 L 438 417.5 L 440.5 418 L 525.5 388 L 601.5 363 L 604.5 361 L 680.5 336 L 683.5 334 L 759.5 309 L 762.5 307 L 800.5 295 L 800 296.5 L 786 326.5 L 788.5 327 L 1050.5 227 Z " class="st0" />
</svg>