<svg version="1.1" id="Layer_1" xmlns="http://www.w3.org/2000/svg" xmlns:xlink="http://www.w3.org/1999/xlink" x="0px" y="0px"
	 width="100%" viewBox="0 0 4500 2134" enable-background="new 0 0 4500 2134" xml:space="preserve">
<path fill="none" opacity="1.000000" stroke="none" 
	d="
M3348.000000,2136.000000 
	C2232.000244,2136.000000 1117.000610,2136.000000 2.000748,2136.000000 
	C2.000499,1424.667236 2.000499,713.334412 2.000249,2.001225 
	C1501.999023,2.000817 3001.998047,2.000817 4501.998047,2.000408 
	C4501.998535,713.332092 4501.998535,1424.664185 4501.999023,2135.998047 
	C4117.666504,2136.000000 3733.333252,2136.000000 3348.000000,2136.000000 
M1137.558105,898.325623 
	C1143.932739,903.967590 1150.307495,909.609558 1157.499023,916.299011 
	C1161.188110,919.610779 1164.885864,922.913025 1168.564819,926.236084 
	C1182.340576,938.679077 1196.076782,951.166260 1209.920410,963.533203 
	C1211.879150,965.283081 1214.115601,967.616089 1217.453979,965.488220 
	C1206.055420,955.195862 1195.141113,945.124634 1183.980835,935.333923 
	C1175.568604,927.953979 1166.841309,920.933289 1157.874023,912.468689 
	C1151.372437,906.852295 1144.870972,901.235840 1138.004272,894.332947 
	C1131.196411,887.554382 1124.161987,881.057434 1115.559448,876.410034 
	C1121.074463,884.976807 1129.545288,890.493591 1137.558105,898.325623 
M825.475037,618.304565 
	C828.207092,620.315674 830.939209,622.326782 834.126343,625.594360 
	C862.111511,653.245117 894.871887,681.483154 903.250610,683.731689 
	C879.788086,662.052673 858.037537,641.810547 834.481628,621.673096 
	C831.752625,619.678650 829.023682,617.684143 825.667664,614.513916 
	C818.660889,608.168396 811.654114,601.822876 804.647400,595.477417 
	C804.020874,596.183228 803.394409,596.889038 802.767944,597.594849 
	C810.085327,604.157104 817.402771,610.719299 825.475037,618.304565 
M1070.474609,833.789490 
	C1067.102539,831.066895 1063.730591,828.344360 1059.865356,824.379517 
	C1054.112183,818.954468 1048.474365,813.400391 1042.582275,808.130798 
	C1029.517456,796.446106 1016.235718,785.003662 1003.202576,773.284363 
	C971.437622,744.721741 939.776855,716.043396 907.997192,687.497253 
	C906.922852,686.532227 905.020508,686.489014 903.504150,686.016113 
	C904.136902,685.586426 904.769714,685.156738 905.402466,684.726990 
	C908.595703,689.411499 911.038513,694.914246 915.106628,698.644531 
	C937.585876,719.257080 960.458984,739.440125 983.201416,759.765503 
	C1008.384705,782.272339 1033.572632,804.774048 1059.558105,828.281006 
	C1062.921997,830.972839 1066.286011,833.664612 1069.995850,837.653503 
	C1084.521851,850.675964 1099.047852,863.698364 1113.573853,876.720825 
	C1112.298340,868.661072 1105.776367,865.630127 1100.914185,861.156250 
	C1091.186157,852.204712 1081.140625,843.598145 1070.474609,833.789490 
M625.630371,438.508148 
	C628.958435,441.140259 632.286499,443.772400 636.111145,447.643127 
	C638.745850,450.156067 641.321594,452.734467 644.024902,455.171265 
	C661.740845,471.140564 679.467712,487.097778 697.224609,503.021423 
	C709.007202,513.587463 720.884705,524.047852 732.649902,534.633118 
	C750.382080,550.587097 768.040344,566.623291 785.758362,582.593140 
	C790.955933,587.277832 796.249329,591.856201 801.498779,596.483337 
	C802.189880,595.681580 802.880981,594.879761 803.572021,594.077942 
	C748.284180,544.112366 692.784668,494.378662 636.494690,443.643433 
	C633.129028,440.957794 629.763367,438.272156 625.987976,434.308960 
	C606.630188,417.644928 588.402466,399.651337 567.268982,382.536865 
	C567.650024,385.267120 567.510437,386.091705 567.843506,386.391937 
	C586.799316,403.480682 605.794373,420.525879 625.630371,438.508148 
M538.094360,359.615631 
	C546.945801,368.396179 556.035889,376.888367 565.995239,384.329803 
	C566.580078,383.666992 567.164856,383.004150 567.749695,382.341339 
	C558.279846,373.823364 548.809937,365.305420 538.540527,355.718994 
	C497.194489,318.686707 455.848450,281.654419 414.502411,244.622131 
	C413.983612,245.087875 413.464813,245.553619 412.945984,246.019363 
	C414.101227,247.795914 414.943268,249.917542 416.460815,251.294891 
	C429.682068,263.294769 443.032013,275.152740 456.328827,287.069458 
	C479.286560,307.644318 502.197418,328.271759 525.220520,348.773224 
	C529.112549,352.238983 533.468872,355.183472 538.094360,359.615631 
M2185.392090,1872.112305 
	C2272.867188,1782.684692 2360.342285,1693.256958 2449.260254,1602.354492 
	C2411.696289,1593.801758 2375.483398,1587.155640 2338.156738,1578.583374 
	C2344.249512,1569.353271 2349.223389,1561.595337 2354.419678,1553.989746 
	C2368.272217,1533.714966 2382.194092,1513.487793 2396.139404,1493.276855 
	C2405.184326,1480.168213 2414.503174,1467.245239 2423.365234,1454.015015 
	C2433.327148,1439.142822 2442.763916,1423.918335 2452.760254,1409.069824 
	C2455.477295,1405.033813 2455.882080,1401.769653 2453.503906,1398.854736 
	C2433.123779,1408.906250 2417.973145,1425.321411 2401.154053,1439.608032 
	C2384.224854,1453.987915 2367.928467,1469.112549 2351.361572,1483.918701 
	C2335.013184,1498.529785 2318.641357,1513.114868 2302.338867,1527.776855 
	C2285.822021,1542.631348 2269.456543,1557.655273 2252.878174,1572.440552 
	C2236.464600,1587.078857 2219.867920,1601.511841 2201.987549,1617.234253 
	C2239.430908,1625.228027 2274.826172,1632.553711 2310.118164,1641.722290 
	C2305.434082,1649.919556 2301.634521,1656.915771 2297.514404,1663.718018 
	C2281.352295,1690.401367 2265.121094,1717.043091 2248.853516,1743.662354 
	C2234.873535,1766.538330 2220.696289,1789.294556 2206.817383,1812.231445 
	C2195.671143,1830.651978 2184.840820,1849.263916 2172.650635,1868.392578 
	C2167.289551,1877.030518 2161.108887,1885.269409 2158.544189,1895.269287 
	C2159.153809,1895.752075 2159.763428,1896.234863 2160.373291,1896.717651 
	C2168.312012,1888.747559 2176.250977,1880.777588 2185.392090,1872.112305 
M2471.323486,1385.714355 
	C2472.418457,1384.203857 2473.513428,1382.693481 2475.669434,1379.719116 
	C2476.404785,1391.874878 2477.463135,1402.304077 2477.581055,1412.743652 
	C2477.851562,1436.735229 2477.630615,1460.732178 2477.699463,1484.726562 
	C2477.709473,1488.214233 2478.214844,1491.700562 2478.467285,1494.887573 
	C2484.149658,1495.983765 2487.638672,1494.257935 2490.850586,1490.788940 
	C2499.413330,1481.540283 2508.249512,1472.545166 2516.955078,1463.428223 
	C2530.216553,1449.539917 2543.833984,1435.964722 2556.526855,1421.574341 
	C2561.677246,1415.735107 2568.682129,1411.292603 2568.639404,1401.021362 
	C2568.187744,1292.715454 2568.348633,1184.406860 2568.296631,1076.099121 
	C2568.295410,1073.566650 2567.781982,1071.034546 2567.464600,1068.106445 
	C2522.220703,1068.106445 2477.685059,1068.106445 2433.000244,1068.106445 
	C2402.506348,1121.403564 2372.113525,1174.524292 2340.427246,1229.905273 
	C2338.859863,1226.932007 2338.333984,1225.684692 2337.598389,1224.576538 
	C2327.878662,1209.933228 2317.919189,1195.444702 2308.429443,1180.654297 
	C2285.828857,1145.429321 2263.299805,1110.155884 2241.135742,1074.656006 
	C2237.860840,1069.410278 2234.494629,1067.470459 2228.468994,1067.508545 
	C2189.148926,1067.757446 2149.826904,1067.651855 2110.505371,1067.707764 
	C2101.011475,1067.721313 2100.295410,1068.421875 2100.292725,1077.934082 
	C2100.269775,1163.879517 2100.273682,1249.824951 2100.288330,1335.770386 
	C2100.303955,1426.735596 2100.327881,1517.700928 2100.370361,1608.666138 
	C2100.411621,1697.959717 2100.452881,1787.253296 2100.597900,1876.546753 
	C2100.608154,1882.940552 2101.469238,1889.333008 2102.034424,1897.096313 
	C2105.103271,1895.137573 2106.949951,1894.352905 2108.281006,1893.044067 
	C2115.598145,1885.849487 2122.910400,1878.642212 2130.000000,1871.225098 
	C2148.133301,1852.254028 2165.769287,1832.786621 2184.426270,1814.349731 
	C2190.521484,1808.326660 2192.480469,1802.513672 2192.472900,1794.364380 
	C2192.295410,1601.407349 2192.328857,1408.450073 2192.385986,1215.492920 
	C2192.386963,1212.210938 2191.497070,1208.649780 2193.992920,1204.250610 
	C2230.151855,1259.592407 2265.642334,1313.911011 2300.559082,1367.351807 
	C2326.440186,1367.351807 2350.722656,1367.351807 2375.089355,1367.351807 
	C2408.238525,1312.537476 2441.246582,1257.956421 2475.401611,1201.479126 
	C2476.279541,1213.871460 2477.525146,1223.671021 2477.573486,1233.476440 
	C2477.790283,1277.465576 2477.639893,1321.456421 2477.717529,1365.446533 
	C2477.723877,1368.958496 2476.625977,1371.527832 2474.493652,1374.386108 
	C2472.141602,1377.538940 2471.178955,1381.728271 2468.618408,1385.680786 
	C2468.851562,1386.264038 2469.084473,1386.847168 2469.317627,1387.430420 
	C2469.545410,1386.954590 2469.773438,1386.478638 2471.323486,1385.714355 
M1211.529053,1046.595581 
	C1206.928101,1051.332764 1202.327393,1056.070068 1197.726196,1060.807007 
	C1173.885254,1085.351440 1150.040649,1109.892456 1126.205444,1134.442505 
	C1119.976807,1140.858032 1113.740234,1147.266113 1107.571411,1153.738770 
	C1095.478149,1166.428101 1083.510254,1179.238159 1071.336548,1191.849609 
	C1062.360840,1201.147949 1053.086548,1210.157593 1044.054077,1219.402222 
	C1040.110718,1223.438232 1036.231445,1227.572998 1032.696655,1231.963501 
	C1028.262573,1237.471069 1029.962769,1242.407349 1036.619019,1243.626953 
	C1039.869019,1244.222412 1043.249023,1244.274780 1046.571045,1244.283569 
	C1072.525879,1244.352539 1098.480835,1244.370483 1124.435791,1244.367676 
	C1166.735107,1244.363159 1209.034302,1244.314453 1251.333618,1244.313232 
	C1361.316772,1244.310303 1471.299805,1244.323120 1581.282959,1244.329712 
	C1584.729004,1244.329834 1588.175049,1244.329712 1593.098389,1244.329712 
	C1590.593872,1247.810181 1589.445190,1249.795044 1587.932617,1251.447021 
	C1575.832764,1264.662598 1563.766357,1277.911377 1551.492554,1290.964478 
	C1533.083740,1310.542236 1514.505859,1329.960938 1496.015259,1349.461548 
	C1459.666504,1387.795776 1423.324951,1426.136841 1386.986694,1464.480957 
	C1356.888184,1496.240967 1326.798096,1528.008911 1296.705933,1559.775024 
	C1272.505615,1585.321899 1248.309448,1610.872681 1224.108032,1636.418457 
	C1199.659302,1662.225220 1175.220581,1688.041626 1150.751465,1713.829102 
	C1125.645508,1740.287354 1100.498901,1766.706787 1075.387207,1793.159424 
	C1051.347900,1818.482544 1027.301636,1843.799194 1003.330017,1869.186401 
	C999.004456,1873.767578 994.976013,1878.634399 990.905884,1883.450195 
	C988.357788,1886.464966 985.572632,1889.366211 987.573792,1894.013916 
	C989.662170,1898.864624 993.772705,1898.251343 997.721680,1898.324829 
	C999.387634,1898.355835 1001.054688,1898.352905 1002.720825,1898.331787 
	C1020.030579,1898.112427 1037.340210,1897.704956 1054.650024,1897.692261 
	C1143.303955,1897.626587 1231.957886,1897.634277 1320.611816,1897.692993 
	C1333.922363,1897.701782 1347.232788,1898.117432 1360.543213,1898.338257 
	C1364.229858,1898.399414 1367.419800,1898.124268 1370.364868,1894.896118 
	C1383.970459,1879.982544 1397.959839,1865.419678 1411.741577,1850.665649 
	C1434.188965,1826.634888 1456.513672,1802.489258 1479.026245,1778.520020 
	C1490.370728,1766.441528 1502.152344,1754.773438 1513.486816,1742.685791 
	C1527.771729,1727.452148 1541.748413,1711.930176 1555.957397,1696.624512 
	C1569.946045,1681.556274 1584.065674,1666.609619 1598.114624,1651.597412 
	C1616.689819,1631.749023 1635.185181,1611.825317 1653.849487,1592.061279 
	C1662.492798,1582.908691 1671.605713,1574.199341 1680.241577,1565.040161 
	C1698.017334,1546.187256 1715.560425,1527.114990 1733.302612,1508.230103 
	C1750.837036,1489.566162 1768.558472,1471.077881 1786.090576,1452.411865 
	C1810.169434,1426.775635 1834.111084,1401.010498 1858.179077,1375.363892 
	C1880.189941,1351.909302 1902.369507,1328.612549 1924.329224,1305.110474 
	C1945.437012,1282.520020 1966.240601,1259.643921 1987.478149,1237.177368 
	C1990.991333,1233.460815 1992.427612,1229.983398 1992.419556,1224.961304 
	C1992.284058,1140.973633 1992.327637,1056.985596 1992.294800,972.997742 
	C1992.293823,970.441284 1991.895996,967.884949 1991.595947,964.282776 
	C1977.831909,964.282776 1964.581665,964.284729 1951.331299,964.282227 
	C1937.667725,964.279602 1924.004028,964.270630 1910.340454,964.268127 
	C1897.009521,964.265747 1883.678589,964.258179 1870.347656,964.271179 
	C1857.017090,964.284180 1843.686646,964.329834 1830.356079,964.342773 
	C1817.024658,964.355713 1803.693237,964.347656 1790.361816,964.345459 
	C1776.697144,964.343201 1763.032104,964.400330 1749.367920,964.314087 
	C1736.321655,964.231689 1723.246704,964.689209 1708.366455,963.976196 
	C1711.806519,960.119812 1713.692749,957.892639 1715.697510,955.777771 
	C1723.222778,947.839233 1730.818115,939.967102 1738.330322,932.016235 
	C1759.567749,909.538635 1780.716797,886.977051 1802.015869,864.558167 
	C1820.488281,845.114441 1839.197876,825.895935 1857.659790,806.442261 
	C1883.730347,778.971313 1909.645386,751.352783 1935.672974,723.840881 
	C1952.345825,706.217224 1968.778564,688.345642 1986.018677,671.292603 
	C1991.130615,666.235840 1992.429688,661.390503 1992.423096,654.769104 
	C1992.288452,520.122009 1992.323242,385.474701 1992.319092,250.827423 
	C1992.318970,248.163284 1992.299805,245.497147 1992.178467,242.836945 
	C1992.158569,242.401947 1991.559204,241.993393 1990.619507,240.800552 
	C1990.003662,243.815567 1989.512329,246.220428 1989.403320,246.754440 
	C1984.461426,249.822296 1980.229370,251.504044 1977.262207,254.456833 
	C1965.042847,266.617157 1953.200073,279.156281 1941.232666,291.569489 
	C1922.841309,310.645691 1904.544189,329.813782 1886.051636,348.791260 
	C1869.854248,365.413452 1853.281738,381.671814 1837.168457,398.374054 
	C1819.390381,416.801788 1802.053223,435.654358 1784.329468,454.135132 
	C1763.143921,476.225525 1741.801147,498.165894 1720.434448,520.081421 
	C1702.593506,538.380554 1684.540039,556.472778 1666.730225,574.801819 
	C1652.392700,589.557190 1638.347778,604.596375 1624.045776,619.386658 
	C1609.072998,634.870605 1593.876953,650.138672 1578.909058,665.627258 
	C1561.394287,683.751160 1544.054443,702.044006 1526.575684,720.202820 
	C1509.961182,737.463928 1493.232056,754.614624 1476.613647,771.871948 
	C1454.695557,794.633118 1432.876221,817.489685 1410.937988,840.231506 
	C1395.496094,856.239014 1379.884766,872.083130 1364.425415,888.073975 
	C1348.061523,905.000305 1331.881592,922.105164 1315.444092,938.959290 
	C1303.181396,951.533020 1290.461426,963.662476 1278.255493,976.289734 
	C1256.124390,999.184875 1234.224609,1022.303589 1211.529053,1046.595581 
M392.909668,1285.000000 
	C392.701080,1295.304565 392.330963,1305.609009 392.312347,1315.913818 
	C392.237762,1357.156494 392.267151,1398.399414 392.268097,1439.642212 
	C392.268890,1472.566772 392.291321,1505.491455 392.291199,1538.416016 
	C392.291077,1572.635498 392.263977,1606.855103 392.268738,1641.074585 
	C392.280121,1723.397827 392.311035,1805.721191 392.311127,1888.044434 
	C392.311127,1897.371338 393.013428,1898.279907 402.592804,1898.305298 
	C433.551849,1898.387207 464.511566,1898.451172 495.470367,1898.343018 
	C518.450989,1898.262695 541.430969,1897.686890 564.410706,1897.716309 
	C607.718933,1897.771729 651.026855,1898.115601 694.335083,1898.293579 
	C696.864868,1898.303955 699.396362,1897.903687 702.496216,1897.647461 
	C702.496216,1597.034302 702.496033,1297.078369 702.523254,997.122498 
	C702.523254,996.905457 702.914368,996.658447 703.161987,996.479736 
	C703.419373,996.294067 703.724365,996.174438 704.229431,995.910583 
	C705.954651,997.266968 707.831665,998.608032 709.558167,1000.120728 
	C729.979553,1018.013367 750.337708,1035.978394 770.794373,1053.830444 
	C793.052612,1073.254883 815.468201,1092.499268 837.682373,1111.973755 
	C857.641418,1129.470947 877.361694,1147.240234 897.302673,1164.758301 
	C907.774475,1173.957764 918.576538,1182.780518 929.077087,1191.947876 
	C939.066772,1200.669312 948.725159,1209.772827 958.784912,1218.410400 
	C965.205566,1223.923340 965.802185,1223.740723 971.871765,1217.575317 
	C977.233154,1212.129395 982.363464,1206.456787 987.633606,1200.920288 
	C1000.896423,1186.987427 1014.238464,1173.129639 1027.440796,1159.139893 
	C1042.264526,1143.432251 1056.836548,1127.485352 1071.764771,1111.878418 
	C1086.417847,1096.559082 1101.525269,1081.674316 1116.175049,1066.351929 
	C1140.497925,1040.912231 1164.603394,1015.264954 1188.823975,989.727600 
	C1195.173584,983.032837 1201.610107,976.420654 1208.721558,969.027283 
	C937.250000,725.539185 666.437622,482.642334 394.602844,238.828461 
	C393.777222,245.029846 392.716003,249.663620 392.622375,254.316864 
	C392.314697,269.605469 392.270599,284.901184 392.279449,300.194061 
	C392.469208,627.795044 392.679962,955.395996 392.909668,1285.000000 
M1992.322998,1497.000122 
	C1992.322998,1433.073486 1992.322998,1369.146851 1992.322998,1305.220215 
	C1989.800415,1307.417358 1989.198486,1310.387695 1987.414185,1311.564087 
	C1985.996338,1312.498657 1983.132080,1311.238647 1980.536499,1310.904907 
	C1956.067505,1336.379517 1931.473145,1362.045776 1906.809814,1387.645630 
	C1878.660889,1416.863525 1850.472534,1446.043823 1822.257935,1475.198486 
	C1807.060913,1490.901978 1791.709473,1506.456299 1776.540771,1522.186890 
	C1753.733032,1545.839355 1731.149414,1569.709961 1708.156616,1593.180420 
	C1704.116577,1597.304443 1702.217651,1601.182617 1702.227783,1606.992188 
	C1702.390259,1700.979370 1702.340332,1794.966919 1702.360107,1888.954468 
	C1702.360718,1891.531494 1702.601074,1894.108643 1702.770874,1897.511230 
	C1799.601562,1897.511230 1895.815674,1897.511230 1992.322998,1897.511230 
	C1992.322998,1764.263184 1992.322998,1631.631714 1992.322998,1497.000122 
M2973.000000,1554.317749 
	C2922.008301,1554.318604 2871.016602,1554.315796 2820.024902,1554.321289 
	C2768.842285,1554.326904 2717.658936,1554.292236 2666.283936,1554.355957 
	C2666.283936,1569.023315 2666.283936,1582.190918 2666.283936,1596.341553 
	C2670.133789,1596.341553 2673.373779,1596.341553 2676.614014,1596.341553 
	C2893.912842,1596.342407 3111.211670,1596.343384 3328.510498,1596.342529 
	C3331.176514,1596.342529 3333.875000,1596.565063 3336.497070,1596.218994 
	C3338.338135,1595.975952 3340.464844,1595.371826 3341.781494,1594.176758 
	C3345.180664,1591.091431 3348.179199,1587.567505 3351.377686,1584.257080 
	C3359.787354,1575.552246 3368.218750,1566.868042 3376.754395,1558.059204 
	C3387.145996,1568.900879 3396.986328,1578.787231 3406.356201,1589.100952 
	C3411.158203,1594.386597 3416.206299,1596.671143 3423.633057,1596.552856 
	C3454.287354,1596.063965 3484.953369,1596.345337 3515.615234,1596.343506 
	C3518.843994,1596.343384 3522.072754,1596.343384 3526.402100,1596.343384 
	C3526.402100,1697.290283 3526.402100,1797.065186 3526.402100,1897.682373 
	C3530.432617,1897.682373 3533.358643,1897.682739 3536.284912,1897.682373 
	C3555.615234,1897.679932 3574.945312,1897.686890 3594.275635,1897.671509 
	C3606.351074,1897.661987 3606.351562,1897.646973 3606.385742,1885.462036 
	C3606.391357,1883.462402 3606.389160,1881.462646 3606.389160,1879.463013 
	C3606.389404,1788.810669 3606.389404,1698.158447 3606.389404,1607.506104 
	C3606.389404,1603.985962 3606.389404,1600.465820 3606.389404,1596.344238 
	C3611.091064,1596.344238 3614.379150,1596.343872 3617.667236,1596.344238 
	C3647.662354,1596.347290 3677.658447,1596.438965 3707.652100,1596.231079 
	C3711.037598,1596.207642 3715.446533,1595.537964 3717.616211,1593.387451 
	C3728.214111,1582.884033 3738.246338,1571.807007 3748.379150,1560.840942 
	C3749.577637,1559.543945 3750.164795,1557.682129 3751.874512,1554.539551 
	C3702.734375,1554.539551 3655.008057,1554.539551 3606.236816,1554.539551 
	C3606.236816,1543.521851 3606.236816,1533.692505 3606.236816,1523.075439 
	C3579.142090,1523.075439 3553.105957,1523.075439 3525.962646,1523.075439 
	C3525.962646,1533.843994 3525.962646,1543.963623 3525.962646,1554.317749 
	C3341.571533,1554.317749 3158.285889,1554.317749 2973.000000,1554.317749 
M2673.408203,1898.332031 
	C2697.585693,1898.332031 2721.763184,1898.332031 2745.893066,1898.332031 
	C2745.893066,1801.485840 2745.893066,1705.973389 2745.893066,1610.519165 
	C2729.420410,1608.603638 2673.078125,1609.238281 2666.322266,1611.339600 
	C2666.322266,1616.966919 2666.322510,1622.579468 2666.322510,1628.191895 
	C2666.322510,1669.852173 2666.667236,1711.516724 2666.131836,1753.170166 
	C2665.949463,1767.357788 2664.223389,1781.623535 2661.995605,1795.661987 
	C2659.205078,1813.245605 2650.845459,1827.801270 2633.875977,1835.409302 
	C2620.453857,1841.426758 2606.072266,1841.347900 2591.862305,1838.931274 
	C2577.002686,1836.404175 2568.011230,1826.636353 2563.387939,1812.843506 
	C2559.470947,1801.157959 2557.633545,1789.070435 2557.667480,1776.649780 
	C2557.800293,1728.325073 2557.763184,1679.999634 2557.723877,1631.674561 
	C2557.691406,1592.047852 2557.600098,1552.421143 2557.430908,1512.794800 
	C2557.413330,1508.710815 2556.683838,1504.630005 2556.109863,1498.762329 
	C2551.093994,1503.509888 2547.371582,1506.703125 2544.027344,1510.252686 
	C2523.529785,1532.009399 2503.270264,1553.993286 2482.557129,1575.541870 
	C2478.033936,1580.247559 2476.067139,1584.898193 2476.153564,1591.344360 
	C2476.514648,1618.288574 2476.402344,1645.238770 2476.591553,1672.185791 
	C2476.895264,1715.385376 2476.983398,1758.590820 2477.861572,1801.779541 
	C2478.115723,1814.292114 2479.767334,1826.980591 2482.530273,1839.192261 
	C2487.153320,1859.625610 2496.802490,1877.224243 2517.160156,1886.221313 
	C2533.644043,1893.506348 2550.856201,1898.267700 2569.087158,1898.320312 
	C2581.085205,1898.354980 2593.093506,1898.646973 2605.079102,1898.259399 
	C2620.632324,1897.756592 2636.152100,1896.757324 2651.190674,1892.027344 
	C2657.065674,1890.179565 2663.186035,1889.111816 2668.684814,1887.809570 
	C2669.703369,1891.560669 2670.608154,1894.892822 2673.408203,1898.332031 
M2649.571777,1244.655762 
	C2638.245850,1262.564453 2630.784668,1282.075439 2627.827393,1302.942627 
	C2625.974121,1316.020508 2625.806641,1329.406250 2625.758057,1342.656982 
	C2625.650879,1371.985107 2634.307861,1399.172729 2650.050293,1423.481567 
	C2675.356934,1462.559814 2713.204102,1481.086060 2758.750000,1484.104370 
	C2778.229004,1485.395142 2797.842773,1485.072510 2817.144775,1479.902222 
	C2839.095215,1474.022461 2858.806885,1464.563843 2875.058838,1448.444092 
	C2890.245605,1433.380981 2899.322510,1414.588135 2907.434326,1395.237183 
	C2908.531006,1392.621094 2908.703125,1389.617310 2909.401855,1386.330200 
	C2902.753662,1386.330200 2896.833252,1386.395142 2890.914551,1386.317505 
	C2875.936523,1386.121094 2860.958496,1385.901733 2845.982178,1385.602295 
	C2840.995850,1385.502563 2837.630859,1386.555542 2835.009277,1391.875244 
	C2829.404785,1403.248169 2819.343994,1410.318359 2808.275146,1416.153931 
	C2791.650879,1424.917969 2773.779053,1423.672241 2756.468506,1421.316040 
	C2720.691406,1416.446533 2705.064209,1380.452881 2708.935303,1353.466553 
	C2777.000732,1353.466553 2845.183594,1353.466553 2913.983887,1353.466553 
	C2914.593750,1346.203491 2916.111816,1339.560791 2915.495605,1333.122314 
	C2914.142822,1318.995605 2912.248291,1304.869385 2909.584717,1290.932129 
	C2906.000000,1272.177124 2898.224854,1255.094482 2888.026123,1238.840942 
	C2877.309814,1221.763062 2862.849609,1208.779907 2846.218018,1198.286499 
	C2835.354004,1191.431885 2823.564209,1185.978271 2810.496582,1183.663208 
	C2789.102783,1179.873169 2767.830078,1178.841919 2746.217773,1182.038574 
	C2725.747314,1185.066406 2707.501709,1192.846802 2690.188721,1203.886230 
	C2673.947021,1214.242798 2661.081055,1227.712769 2649.571777,1244.655762 
M3629.003174,1484.332520 
	C3642.680176,1484.702026 3656.041504,1482.916504 3669.442383,1479.980591 
	C3701.020264,1473.062012 3727.686279,1458.318359 3747.763672,1432.699219 
	C3760.574951,1416.351685 3769.245117,1397.994385 3774.162598,1377.672607 
	C3778.282227,1360.647705 3778.216309,1343.492065 3778.422852,1326.212769 
	C3778.781738,1296.218384 3771.479736,1268.325928 3755.655273,1242.963257 
	C3742.361084,1221.655762 3723.869873,1205.970093 3701.071289,1195.109619 
	C3684.333008,1187.136108 3666.906494,1183.242065 3648.513672,1181.293579 
	C3614.617188,1177.702515 3582.368652,1181.995361 3552.050293,1197.836792 
	C3532.577637,1208.011353 3516.555176,1222.308594 3504.655029,1240.869263 
	C3494.014648,1257.465454 3486.589111,1275.291138 3483.113525,1294.931763 
	C3476.298340,1333.445557 3478.496826,1370.878418 3494.740234,1406.837891 
	C3503.225342,1425.622192 3516.155029,1441.288330 3532.238037,1453.918457 
	C3559.947754,1475.679688 3592.232666,1484.159912 3629.003174,1484.332520 
M3342.104248,1182.501953 
	C3334.848389,1181.776123 3327.589844,1181.077637 3320.337402,1180.319092 
	C3299.635986,1178.154419 3279.280029,1181.484131 3258.911865,1184.295410 
	C3245.597656,1186.133179 3233.278809,1191.220459 3221.579590,1197.553467 
	C3209.438232,1204.126099 3199.504395,1213.307129 3192.095703,1225.126831 
	C3183.922852,1238.164673 3181.049072,1252.460083 3180.078613,1267.667358 
	C3178.048096,1299.488037 3194.020020,1321.304688 3221.356201,1335.099854 
	C3236.109375,1342.544922 3252.092529,1345.304810 3267.625977,1349.742065 
	C3289.600098,1356.019287 3311.910645,1361.120605 3333.887451,1367.389771 
	C3340.108643,1369.164429 3346.155518,1372.586304 3351.433350,1376.421387 
	C3363.919922,1385.494995 3364.134766,1400.642700 3354.918945,1412.388550 
	C3348.216064,1420.931396 3338.843750,1426.000732 3327.939453,1428.112915 
	C3315.370117,1430.547363 3302.850342,1430.225830 3290.385742,1427.906006 
	C3271.614502,1424.412476 3250.868896,1407.337280 3251.517578,1386.076538 
	C3251.553955,1384.879272 3250.686279,1383.654419 3250.206055,1382.351562 
	C3224.781006,1382.351562 3199.631348,1382.351562 3173.826904,1382.351562 
	C3173.826904,1386.330933 3173.467285,1389.634644 3173.882812,1392.837891 
	C3177.879150,1423.650146 3192.622559,1447.638184 3219.348633,1463.959717 
	C3242.418945,1478.048340 3268.386963,1481.986938 3294.494629,1484.117920 
	C3318.415039,1486.070557 3342.250000,1483.710693 3365.711914,1477.905518 
	C3385.168945,1473.091187 3402.654297,1464.581909 3416.735596,1450.415649 
	C3435.788818,1431.247559 3443.540283,1407.494751 3442.378662,1380.624146 
	C3441.884033,1369.182739 3439.555420,1358.467529 3433.673584,1348.379639 
	C3421.424805,1327.371704 3401.611816,1316.656738 3379.726318,1310.155640 
	C3356.908936,1303.378052 3333.267334,1299.426758 3310.174805,1293.503784 
	C3298.987061,1290.634155 3288.013184,1286.598267 3277.359131,1282.102661 
	C3270.636719,1279.266113 3264.762207,1274.424194 3262.527588,1266.822876 
	C3259.009521,1254.855957 3263.863770,1244.321655 3276.210938,1239.330933 
	C3297.006348,1230.925171 3317.614502,1232.671143 3337.990723,1241.677612 
	C3344.818359,1244.695435 3349.759277,1249.112305 3352.526123,1255.835815 
	C3354.892578,1261.586548 3356.751709,1267.546021 3358.810791,1273.343506 
	C3383.727295,1273.343506 3408.492188,1273.343506 3434.176270,1273.343506 
	C3433.319580,1266.653687 3432.866943,1261.062744 3431.854248,1255.575195 
	C3428.072021,1235.080688 3417.181885,1218.794434 3401.131592,1205.982056 
	C3384.395996,1192.622803 3365.083252,1185.253052 3342.104248,1182.501953 
M3702.368896,1621.032227 
	C3698.864502,1622.931274 3695.324219,1624.766968 3691.861816,1626.739624 
	C3661.341064,1644.129150 3639.919922,1669.531616 3630.401611,1703.130493 
	C3618.989014,1743.417236 3619.587158,1783.905029 3636.860352,1822.924805 
	C3649.635498,1851.783691 3670.852783,1873.215942 3699.756104,1885.220337 
	C3735.361328,1900.008179 3772.177490,1901.825562 3809.700928,1890.778564 
	C3836.384277,1882.922852 3857.830811,1868.583374 3872.874512,1845.324097 
	C3880.728027,1833.181519 3888.319092,1820.637085 3889.822998,1805.749023 
	C3889.031250,1805.241333 3888.502197,1804.606323 3887.968994,1804.602783 
	C3868.311035,1804.473389 3848.652832,1804.347290 3828.994629,1804.375610 
	C3825.601074,1804.380493 3823.023926,1805.600708 3821.228271,1809.270142 
	C3819.228027,1813.358276 3816.215820,1817.172363 3812.930176,1820.373169 
	C3796.288818,1836.584351 3775.951172,1842.342285 3753.388672,1839.077759 
	C3737.365234,1836.759399 3722.010498,1831.532349 3712.656006,1816.914429 
	C3704.528076,1804.212769 3699.187988,1790.333740 3699.988037,1774.789673 
	C3700.000244,1774.550903 3700.448242,1774.334473 3701.103760,1773.726562 
	C3701.903320,1773.726562 3703.151123,1773.726562 3704.398682,1773.726685 
	C3764.396484,1773.731201 3824.394043,1773.761841 3884.391846,1773.678345 
	C3888.191650,1773.673096 3891.990234,1772.779053 3895.813477,1772.295532 
	C3898.577148,1736.975098 3892.679932,1704.562744 3876.650391,1674.082275 
	C3869.917480,1661.279419 3861.028564,1650.035522 3850.443115,1640.486694 
	C3825.669678,1618.138916 3795.783691,1608.706787 3762.813232,1608.372681 
	C3742.311035,1608.164917 3722.776611,1613.081909 3702.368896,1621.032227 
M2966.323486,1786.377197 
	C2966.971924,1789.289673 2967.658447,1792.194214 2968.262451,1795.115845 
	C2973.227295,1819.128540 2984.298096,1840.004272 3001.163818,1857.677246 
	C3027.983643,1885.780640 3062.216553,1896.191162 3099.816895,1897.647827 
	C3119.864990,1898.424438 3139.447510,1894.851929 3158.350098,1888.247681 
	C3173.208008,1883.056885 3186.732422,1875.234619 3197.983398,1864.123779 
	C3212.646973,1849.643799 3221.758057,1831.611694 3229.332031,1812.740356 
	C3230.244629,1810.466675 3230.370361,1807.877197 3230.985352,1804.814331 
	C3207.957031,1804.814331 3185.795410,1804.814331 3163.579590,1804.814331 
	C3158.072021,1817.726807 3148.298828,1825.790527 3136.543213,1831.999756 
	C3119.787598,1840.850220 3101.966797,1841.438110 3084.349854,1837.006836 
	C3072.195312,1833.949341 3060.638672,1828.262939 3053.172363,1816.902466 
	C3044.384521,1803.531006 3040.833740,1788.875854 3041.042969,1771.971924 
	C3106.283936,1771.971924 3171.054443,1771.971924 3236.340576,1771.971924 
	C3236.340576,1764.610840 3236.446533,1758.312988 3236.322998,1752.019653 
	C3235.704834,1720.536011 3228.486328,1691.065186 3210.559814,1664.588989 
	C3184.077637,1625.475952 3146.243408,1608.553589 3100.263672,1608.608154 
	C3086.867920,1608.624023 3073.511719,1611.246948 3060.275635,1615.236328 
	C3039.338135,1621.546753 3021.344238,1632.030151 3005.724609,1646.871460 
	C2980.222900,1671.102539 2967.722168,1701.646118 2964.461670,1736.080444 
	C2962.931885,1752.233887 2961.973877,1768.597412 2966.323486,1786.377197 
M3265.033203,1723.380493 
	C3273.356445,1739.915405 3286.871826,1750.338623 3303.538330,1757.841675 
	C3319.476074,1765.016602 3336.499512,1767.919678 3353.166260,1772.111206 
	C3372.449463,1776.960815 3391.967773,1780.906616 3410.500000,1788.293213 
	C3419.559326,1791.903931 3428.127686,1796.540527 3430.179199,1807.435181 
	C3432.849121,1821.614502 3426.542236,1833.187622 3412.685059,1839.379272 
	C3395.953613,1846.855103 3378.746582,1847.082520 3361.188232,1842.536499 
	C3343.792236,1838.032471 3327.560059,1823.472656 3327.355957,1802.253906 
	C3327.350830,1801.720459 3326.690186,1801.193359 3325.638184,1799.621460 
	C3302.587158,1799.781616 3278.843994,1799.220947 3254.588867,1800.023193 
	C3253.697754,1817.343506 3257.599121,1832.261353 3265.543457,1845.881714 
	C3278.348633,1867.836182 3297.870117,1881.471802 3321.956055,1888.801025 
	C3341.727051,1894.817017 3361.968750,1897.912354 3382.645996,1897.626953 
	C3391.582520,1897.503540 3400.584473,1897.350708 3409.429199,1896.216919 
	C3435.719482,1892.846680 3460.990723,1886.560181 3481.294922,1867.877319 
	C3506.467773,1844.715088 3513.062012,1815.532593 3506.241211,1783.424072 
	C3501.480225,1761.011597 3485.132812,1747.140869 3464.737061,1738.170410 
	C3441.206543,1727.821167 3416.044678,1723.073120 3391.081543,1717.912354 
	C3377.057861,1715.013184 3363.368408,1711.316406 3350.603271,1704.944092 
	C3341.611572,1700.455444 3336.518311,1692.778198 3337.801270,1682.298828 
	C3339.031738,1672.248657 3345.339844,1666.204590 3354.951172,1663.998413 
	C3373.135010,1659.824341 3391.308594,1660.067505 3408.814941,1666.894531 
	C3417.102539,1670.126709 3422.992676,1676.615356 3425.712646,1685.377808 
	C3426.879639,1689.136230 3427.577393,1693.040161 3428.455811,1696.741455 
	C3440.963379,1699.281616 3492.644043,1698.877441 3499.850342,1696.250000 
	C3502.238770,1671.591797 3485.924316,1645.650635 3467.058594,1631.526367 
	C3452.633545,1620.727051 3435.907959,1615.675537 3418.635498,1612.070190 
	C3394.995605,1607.135498 3371.089600,1606.911743 3347.395508,1610.669312 
	C3330.791992,1613.302246 3314.587158,1617.556519 3299.319824,1625.760986 
	C3263.791260,1644.853271 3252.332031,1688.264771 3265.033203,1723.380493 
M712.315613,1442.999878 
	C712.315613,1594.220581 712.315613,1745.441162 712.315613,1897.547241 
	C729.089233,1892.086426 744.347168,1885.027222 759.413208,1877.531738 
	C762.642944,1875.925171 763.918091,1873.133789 763.760681,1869.298950 
	C763.474854,1862.334595 763.746765,1855.348389 763.746460,1848.371216 
	C763.734192,1587.480103 763.694153,1326.589111 763.856018,1065.698120 
	C763.859497,1060.074097 762.078857,1056.182495 758.153259,1052.810303 
	C744.567017,1041.139404 730.976685,1029.472656 717.297791,1017.911133 
	C716.258667,1017.032776 714.512329,1016.991150 712.315613,1016.323914 
	C712.315613,1158.495117 712.315613,1299.747437 712.315613,1442.999878 
M2951.665527,1254.999878 
	C2951.665527,1330.859985 2951.665527,1406.719971 2951.665527,1482.383301 
	C2963.778320,1484.570068 3028.000732,1484.084229 3035.220459,1481.839355 
	C3035.319580,1480.021362 3035.515869,1478.069458 3035.519531,1476.117310 
	C3035.603027,1431.149292 3035.734619,1386.181152 3035.688965,1341.213257 
	C3035.675537,1328.119019 3038.025391,1315.450928 3041.929688,1303.078613 
	C3045.068359,1293.132202 3050.665283,1284.439453 3058.216064,1277.272339 
	C3072.014893,1264.174683 3088.256592,1256.989014 3107.653076,1257.693359 
	C3119.152344,1258.110962 3130.666748,1258.104980 3142.539062,1258.295410 
	C3142.707520,1257.245850 3143.080322,1255.982910 3143.087402,1254.718018 
	C3143.218994,1231.456177 3143.314209,1208.194214 3143.358398,1184.932129 
	C3143.359619,1184.399658 3142.678955,1183.865723 3141.742920,1182.488647 
	C3105.243408,1180.049194 3068.010742,1174.153564 3032.138672,1190.595703 
	C3031.744629,1186.942749 3031.399658,1183.744873 3031.036621,1180.377197 
	C3004.298340,1180.377197 2978.216309,1180.377197 2951.662598,1180.377197 
	C2951.662598,1205.087646 2951.662598,1229.043701 2951.665527,1254.999878 
M3897.605225,1343.000122 
	C3897.605225,1257.531006 3897.605225,1172.061890 3897.605225,1086.199585 
	C3870.032959,1086.199585 3843.585938,1086.199585 3817.045410,1086.199585 
	C3817.045410,1219.064453 3817.045410,1351.383423 3817.045410,1483.623535 
	C3834.173828,1485.406250 3890.217529,1484.711426 3897.605469,1482.555420 
	C3897.605469,1436.813110 3897.605469,1390.906616 3897.605225,1343.000122 
M2763.656006,1848.999878 
	C2763.656006,1864.913696 2763.656006,1880.827637 2763.656006,1896.943604 
	C2790.333496,1896.943604 2816.065918,1896.943604 2842.335449,1896.943604 
	C2842.335449,1886.711060 2842.171875,1877.200684 2842.372070,1867.697754 
	C2842.700928,1852.092041 2843.498047,1836.493652 2843.674316,1820.887573 
	C2843.907959,1800.223633 2843.941162,1779.552490 2843.661377,1758.889771 
	C2843.477539,1745.310303 2846.747314,1732.493652 2851.815186,1720.203735 
	C2857.714600,1705.896851 2868.118896,1695.413452 2882.225586,1688.836304 
	C2894.544189,1683.092529 2907.637939,1681.507812 2921.051758,1682.198120 
	C2928.929932,1682.603516 2936.788574,1683.383179 2944.553467,1683.986450 
	C2947.032959,1675.651489 2947.004639,1618.225464 2944.539551,1610.206299 
	C2921.542480,1606.829712 2898.287598,1607.025146 2875.049561,1608.302856 
	C2863.741699,1608.924438 2852.800293,1611.669434 2842.940186,1617.723022 
	C2842.281250,1618.127441 2841.158203,1617.775757 2840.254150,1617.775757 
	C2839.780273,1615.103882 2839.340332,1612.622192 2838.940430,1610.367188 
	C2813.574219,1610.367188 2788.776611,1610.367188 2763.656982,1610.367188 
	C2763.656982,1689.712891 2763.656982,1768.356323 2763.656006,1848.999878 
M2050.382568,1605.000122 
	C2050.382568,1496.847900 2050.382568,1388.695679 2050.382568,1279.547852 
	C2046.775635,1280.481079 2044.532837,1280.822876 2042.474609,1281.633423 
	C2030.437744,1286.374512 2018.458984,1291.263428 2006.430420,1296.026245 
	C1997.737183,1299.468384 1997.668335,1299.415527 1997.667847,1308.973755 
	C1997.658569,1502.498413 1997.658447,1696.023071 1997.687866,1889.547729 
	C1997.688354,1892.311401 1998.089844,1895.075195 1998.364746,1898.619995 
	C2016.384277,1891.023315 2033.317139,1883.884766 2050.381836,1876.690674 
	C2050.381836,1786.156128 2050.381836,1696.578247 2050.382568,1605.000122 
M1998.336060,263.073822 
	C1998.336060,329.697662 1998.336182,396.321472 1998.336182,462.945312 
	C1998.336182,529.638245 1998.336060,596.331238 1998.336060,663.607117 
	C2013.168091,657.364075 2027.135376,651.375061 2041.193237,645.607544 
	C2050.229248,641.900391 2050.301270,642.046387 2050.302246,631.930969 
	C2050.313721,507.679535 2050.321045,383.428070 2050.329590,259.176636 
	C2050.329834,255.927414 2050.329834,252.678192 2050.329834,249.248581 
	C2041.043823,247.488571 2032.679443,245.788391 2024.271484,244.342102 
	C2015.931885,242.907547 2007.548218,241.728745 1998.336060,240.306915 
	C1998.336060,247.861267 1998.336060,254.483719 1998.336060,263.073822 
M2050.327881,1200.599121 
	C2050.407959,1119.417236 2050.409912,1038.235840 2050.263916,955.397217 
	C2031.806763,958.613098 2015.069092,961.529480 1998.090088,964.487854 
	C1998.090088,1053.130371 1998.090088,1140.703613 1998.090088,1229.855591 
	C2015.824585,1223.779785 2032.890259,1217.932983 2050.329102,1211.958496 
	C2050.329102,1208.432251 2050.329102,1205.457642 2050.327881,1200.599121 
M3943.036133,1035.763672 
	C3949.895020,1047.315796 3958.075684,1057.842285 3969.248291,1065.434448 
	C3994.125000,1082.338745 4020.685059,1088.305420 4050.362061,1078.965332 
	C4078.791016,1070.018066 4098.954102,1051.808105 4108.209473,1024.447998 
	C4120.778809,987.292236 4113.942383,952.794922 4084.452881,925.070618 
	C4064.427734,906.243835 4039.778809,899.195374 4012.798828,902.085510 
	C3989.882080,904.540466 3970.230957,914.822998 3954.929932,932.226379 
	C3941.165283,947.882080 3933.998779,966.488831 3932.261963,987.310425 
	C3930.860352,1004.109985 3936.038086,1019.367249 3943.036133,1035.763672 
M3882.711426,1554.301025 
	C3868.717041,1554.300903 3854.722900,1554.300903 3840.728516,1554.300903 
	C3826.733887,1554.300903 3812.739502,1554.265747 3798.744873,1554.311035 
	C3784.935547,1554.355835 3771.112061,1554.135620 3756.115234,1554.504395 
	C3757.691895,1557.596802 3758.141846,1559.257202 3759.174561,1560.383301 
	C3768.831055,1570.911987 3778.664795,1581.278809 3788.270996,1591.852539 
	C3791.427490,1595.327148 3794.929199,1596.500366 3799.618896,1596.469238 
	C3829.938721,1596.268311 3860.260986,1596.380737 3890.582275,1596.319946 
	C3892.769775,1596.315430 3894.956299,1595.753174 3897.039062,1595.464722 
	C3897.039062,1581.629272 3897.039062,1568.488770 3897.039062,1554.300903 
	C3892.442139,1554.300903 3888.533447,1554.300903 3882.711426,1554.301025 
z"/>
<path fill="#EDEDED" opacity="1.000000" stroke="none" 
	d="
M1211.878662,1045.962280 
	C1234.224609,1022.303589 1256.124390,999.184875 1278.255493,976.289734 
	C1290.461426,963.662476 1303.181396,951.533020 1315.444092,938.959290 
	C1331.881592,922.105164 1348.061523,905.000305 1364.425415,888.073975 
	C1379.884766,872.083130 1395.496094,856.239014 1410.937988,840.231506 
	C1432.876221,817.489685 1454.695557,794.633118 1476.613647,771.871948 
	C1493.232056,754.614624 1509.961182,737.463928 1526.575684,720.202820 
	C1544.054443,702.044006 1561.394287,683.751160 1578.909058,665.627258 
	C1593.876953,650.138672 1609.072998,634.870605 1624.045776,619.386658 
	C1638.347778,604.596375 1652.392700,589.557190 1666.730225,574.801819 
	C1684.540039,556.472778 1702.593506,538.380554 1720.434448,520.081421 
	C1741.801147,498.165894 1763.143921,476.225525 1784.329468,454.135132 
	C1802.053223,435.654358 1819.390381,416.801788 1837.168457,398.374054 
	C1853.281738,381.671814 1869.854248,365.413452 1886.051636,348.791260 
	C1904.544189,329.813782 1922.841309,310.645691 1941.232666,291.569489 
	C1953.200073,279.156281 1965.042847,266.617157 1977.262207,254.456833 
	C1980.229370,251.504044 1984.461426,249.822296 1989.403320,246.754440 
	C1989.512329,246.220428 1990.003662,243.815567 1990.619507,240.800552 
	C1991.559204,241.993393 1992.158569,242.401947 1992.178467,242.836945 
	C1992.299805,245.497147 1992.318970,248.163284 1992.319092,250.827423 
	C1992.323242,385.474701 1992.288452,520.122009 1992.423096,654.769104 
	C1992.429688,661.390503 1991.130615,666.235840 1986.018677,671.292603 
	C1968.778564,688.345642 1952.345825,706.217224 1935.672974,723.840881 
	C1909.645386,751.352783 1883.730347,778.971313 1857.659790,806.442261 
	C1839.197876,825.895935 1820.488281,845.114441 1802.015869,864.558167 
	C1780.716797,886.977051 1759.567749,909.538635 1738.330322,932.016235 
	C1730.818115,939.967102 1723.222778,947.839233 1715.697510,955.777771 
	C1713.692749,957.892639 1711.806519,960.119812 1708.366455,963.976196 
	C1723.246704,964.689209 1736.321655,964.231689 1749.367920,964.314087 
	C1763.032104,964.400330 1776.697144,964.343201 1790.361816,964.345459 
	C1803.693237,964.347656 1817.024658,964.355713 1830.356079,964.342773 
	C1843.686646,964.329834 1857.017090,964.284180 1870.347656,964.271179 
	C1883.678589,964.258179 1897.009521,964.265747 1910.340454,964.268127 
	C1924.004028,964.270630 1937.667725,964.279602 1951.331299,964.282227 
	C1964.581665,964.284729 1977.831909,964.282776 1991.595947,964.282776 
	C1991.895996,967.884949 1992.293823,970.441284 1992.294800,972.997742 
	C1992.327637,1056.985596 1992.284058,1140.973633 1992.419556,1224.961304 
	C1992.427612,1229.983398 1990.991333,1233.460815 1987.478149,1237.177368 
	C1966.240601,1259.643921 1945.437012,1282.520020 1924.329224,1305.110474 
	C1902.369507,1328.612549 1880.189941,1351.909302 1858.179077,1375.363892 
	C1834.111084,1401.010498 1810.169434,1426.775635 1786.090576,1452.411865 
	C1768.558472,1471.077881 1750.837036,1489.566162 1733.302612,1508.230103 
	C1715.560425,1527.114990 1698.017334,1546.187256 1680.241577,1565.040161 
	C1671.605713,1574.199341 1662.492798,1582.908691 1653.849487,1592.061279 
	C1635.185181,1611.825317 1616.689819,1631.749023 1598.114624,1651.597412 
	C1584.065674,1666.609619 1569.946045,1681.556274 1555.957397,1696.624512 
	C1541.748413,1711.930176 1527.771729,1727.452148 1513.486816,1742.685791 
	C1502.152344,1754.773438 1490.370728,1766.441528 1479.026245,1778.520020 
	C1456.513672,1802.489258 1434.188965,1826.634888 1411.741577,1850.665649 
	C1397.959839,1865.419678 1383.970459,1879.982544 1370.364868,1894.896118 
	C1367.419800,1898.124268 1364.229858,1898.399414 1360.543213,1898.338257 
	C1347.232788,1898.117432 1333.922363,1897.701782 1320.611816,1897.692993 
	C1231.957886,1897.634277 1143.303955,1897.626587 1054.650024,1897.692261 
	C1037.340210,1897.704956 1020.030579,1898.112427 1002.720825,1898.331787 
	C1001.054688,1898.352905 999.387634,1898.355835 997.721680,1898.324829 
	C993.772705,1898.251343 989.662170,1898.864624 987.573792,1894.013916 
	C985.572632,1889.366211 988.357788,1886.464966 990.905884,1883.450195 
	C994.976013,1878.634399 999.004456,1873.767578 1003.330017,1869.186401 
	C1027.301636,1843.799194 1051.347900,1818.482544 1075.387207,1793.159424 
	C1100.498901,1766.706787 1125.645508,1740.287354 1150.751465,1713.829102 
	C1175.220581,1688.041626 1199.659302,1662.225220 1224.108032,1636.418457 
	C1248.309448,1610.872681 1272.505615,1585.321899 1296.705933,1559.775024 
	C1326.798096,1528.008911 1356.888184,1496.240967 1386.986694,1464.480957 
	C1423.324951,1426.136841 1459.666504,1387.795776 1496.015259,1349.461548 
	C1514.505859,1329.960938 1533.083740,1310.542236 1551.492554,1290.964478 
	C1563.766357,1277.911377 1575.832764,1264.662598 1587.932617,1251.447021 
	C1589.445190,1249.795044 1590.593872,1247.810181 1593.098389,1244.329712 
	C1588.175049,1244.329712 1584.729004,1244.329834 1581.282959,1244.329712 
	C1471.299805,1244.323120 1361.316772,1244.310303 1251.333618,1244.313232 
	C1209.034302,1244.314453 1166.735107,1244.363159 1124.435791,1244.367676 
	C1098.480835,1244.370483 1072.525879,1244.352539 1046.571045,1244.283569 
	C1043.249023,1244.274780 1039.869019,1244.222412 1036.619019,1243.626953 
	C1029.962769,1242.407349 1028.262573,1237.471069 1032.696655,1231.963501 
	C1036.231445,1227.572998 1040.110718,1223.438232 1044.054077,1219.402222 
	C1053.086548,1210.157593 1062.360840,1201.147949 1071.336548,1191.849609 
	C1083.510254,1179.238159 1095.478149,1166.428101 1107.571411,1153.738770 
	C1113.740234,1147.266113 1119.976807,1140.858032 1126.205444,1134.442505 
	C1150.040649,1109.892456 1173.885254,1085.351440 1197.726196,1060.807007 
	C1202.327393,1056.070068 1206.928101,1051.332764 1211.878662,1045.962280 
z"/>
<path fill="#ECECEC" opacity="1.000000" stroke="none" 
	d="
M392.898132,1283.998535 
	C392.679962,955.395996 392.469208,627.795044 392.279449,300.194061 
	C392.270599,284.901184 392.314697,269.605469 392.622375,254.316864 
	C392.716003,249.663620 393.777222,245.029846 394.602844,238.828461 
	C666.437622,482.642334 937.250000,725.539185 1208.721558,969.027283 
	C1201.610107,976.420654 1195.173584,983.032837 1188.823975,989.727600 
	C1164.603394,1015.264954 1140.497925,1040.912231 1116.175049,1066.351929 
	C1101.525269,1081.674316 1086.417847,1096.559082 1071.764771,1111.878418 
	C1056.836548,1127.485352 1042.264526,1143.432251 1027.440796,1159.139893 
	C1014.238464,1173.129639 1000.896423,1186.987427 987.633606,1200.920288 
	C982.363464,1206.456787 977.233154,1212.129395 971.871765,1217.575317 
	C965.802185,1223.740723 965.205566,1223.923340 958.784912,1218.410400 
	C948.725159,1209.772827 939.066772,1200.669312 929.077087,1191.947876 
	C918.576538,1182.780518 907.774475,1173.957764 897.302673,1164.758301 
	C877.361694,1147.240234 857.641418,1129.470947 837.682373,1111.973755 
	C815.468201,1092.499268 793.052612,1073.254883 770.794373,1053.830444 
	C750.337708,1035.978394 729.979553,1018.013367 709.558167,1000.120728 
	C707.831665,998.608032 705.954651,997.266968 704.229431,995.910583 
	C703.724365,996.174438 703.419373,996.294067 703.161987,996.479736 
	C702.914368,996.658447 702.523254,996.905457 702.523254,997.122498 
	C702.496033,1297.078369 702.496216,1597.034302 702.496216,1897.647461 
	C699.396362,1897.903687 696.864868,1898.303955 694.335083,1898.293579 
	C651.026855,1898.115601 607.718933,1897.771729 564.410706,1897.716309 
	C541.430969,1897.686890 518.450989,1898.262695 495.470367,1898.343018 
	C464.511566,1898.451172 433.551849,1898.387207 402.592804,1898.305298 
	C393.013428,1898.279907 392.311127,1897.371338 392.311127,1888.044434 
	C392.311035,1805.721191 392.280121,1723.397827 392.268738,1641.074585 
	C392.263977,1606.855103 392.291077,1572.635498 392.291199,1538.416016 
	C392.291321,1505.491455 392.268890,1472.566772 392.268097,1439.642212 
	C392.267151,1398.399414 392.237762,1357.156494 392.312347,1315.913818 
	C392.330963,1305.609009 392.701080,1295.304565 392.898132,1283.998535 
z"/>
<path fill="#ECECEC" opacity="1.000000" stroke="none" 
	d="
M2469.611084,1385.466064 
	C2471.178955,1381.728271 2472.141602,1377.538940 2474.493652,1374.386108 
	C2476.625977,1371.527832 2477.723877,1368.958496 2477.717529,1365.446533 
	C2477.639893,1321.456421 2477.790283,1277.465576 2477.573486,1233.476440 
	C2477.525146,1223.671021 2476.279541,1213.871460 2475.401611,1201.479126 
	C2441.246582,1257.956421 2408.238525,1312.537476 2375.089355,1367.351807 
	C2350.722656,1367.351807 2326.440186,1367.351807 2300.559082,1367.351807 
	C2265.642334,1313.911011 2230.151855,1259.592407 2193.992920,1204.250610 
	C2191.497070,1208.649780 2192.386963,1212.210938 2192.385986,1215.492920 
	C2192.328857,1408.450073 2192.295410,1601.407349 2192.472900,1794.364380 
	C2192.480469,1802.513672 2190.521484,1808.326660 2184.426270,1814.349731 
	C2165.769287,1832.786621 2148.133301,1852.254028 2130.000000,1871.225098 
	C2122.910400,1878.642212 2115.598145,1885.849487 2108.281006,1893.044067 
	C2106.949951,1894.352905 2105.103271,1895.137573 2102.034424,1897.096313 
	C2101.469238,1889.333008 2100.608154,1882.940552 2100.597900,1876.546753 
	C2100.452881,1787.253296 2100.411621,1697.959717 2100.370361,1608.666138 
	C2100.327881,1517.700928 2100.303955,1426.735596 2100.288330,1335.770386 
	C2100.273682,1249.824951 2100.269775,1163.879517 2100.292725,1077.934082 
	C2100.295410,1068.421875 2101.011475,1067.721313 2110.505371,1067.707764 
	C2149.826904,1067.651855 2189.148926,1067.757446 2228.468994,1067.508545 
	C2234.494629,1067.470459 2237.860840,1069.410278 2241.135742,1074.656006 
	C2263.299805,1110.155884 2285.828857,1145.429321 2308.429443,1180.654297 
	C2317.919189,1195.444702 2327.878662,1209.933228 2337.598389,1224.576538 
	C2338.333984,1225.684692 2338.859863,1226.932007 2340.427246,1229.905273 
	C2372.113525,1174.524292 2402.506348,1121.403564 2433.000244,1068.106445 
	C2477.685059,1068.106445 2522.220703,1068.106445 2567.464600,1068.106445 
	C2567.781982,1071.034546 2568.295410,1073.566650 2568.296631,1076.099121 
	C2568.348633,1184.406860 2568.187744,1292.715454 2568.639404,1401.021362 
	C2568.682129,1411.292603 2561.677246,1415.735107 2556.526855,1421.574341 
	C2543.833984,1435.964722 2530.216553,1449.539917 2516.955078,1463.428223 
	C2508.249512,1472.545166 2499.413330,1481.540283 2490.850586,1490.788940 
	C2487.638672,1494.257935 2484.149658,1495.983765 2478.467285,1494.887573 
	C2478.214844,1491.700562 2477.709473,1488.214233 2477.699463,1484.726562 
	C2477.630615,1460.732178 2477.851562,1436.735229 2477.581055,1412.743652 
	C2477.463135,1402.304077 2476.404785,1391.874878 2475.669434,1379.719116 
	C2473.513428,1382.693481 2472.418457,1384.203857 2470.563721,1385.725098 
	C2469.803955,1385.735962 2469.611084,1385.466064 2469.611084,1385.466064 
z"/>
<path fill="#ECECEC" opacity="1.000000" stroke="none" 
	d="
M1992.322998,1498.000244 
	C1992.322998,1631.631714 1992.322998,1764.263184 1992.322998,1897.511230 
	C1895.815674,1897.511230 1799.601562,1897.511230 1702.770874,1897.511230 
	C1702.601074,1894.108643 1702.360718,1891.531494 1702.360107,1888.954468 
	C1702.340332,1794.966919 1702.390259,1700.979370 1702.227783,1606.992188 
	C1702.217651,1601.182617 1704.116577,1597.304443 1708.156616,1593.180420 
	C1731.149414,1569.709961 1753.733032,1545.839355 1776.540771,1522.186890 
	C1791.709473,1506.456299 1807.060913,1490.901978 1822.257935,1475.198486 
	C1850.472534,1446.043823 1878.660889,1416.863525 1906.809814,1387.645630 
	C1931.473145,1362.045776 1956.067505,1336.379517 1980.536499,1310.904907 
	C1983.132080,1311.238647 1985.996338,1312.498657 1987.414185,1311.564087 
	C1989.198486,1310.387695 1989.800415,1307.417358 1992.322998,1305.220215 
	C1992.322998,1369.146851 1992.322998,1433.073486 1992.322998,1498.000244 
z"/>
<path fill="#EAEAEA" opacity="1.000000" stroke="none" 
	d="
M2974.000000,1554.317749 
	C3158.285889,1554.317749 3341.571533,1554.317749 3525.962646,1554.317749 
	C3525.962646,1543.963623 3525.962646,1533.843994 3525.962646,1523.075439 
	C3553.105957,1523.075439 3579.142090,1523.075439 3606.236816,1523.075439 
	C3606.236816,1533.692505 3606.236816,1543.521851 3606.236816,1554.539551 
	C3655.008057,1554.539551 3702.734375,1554.539551 3751.874512,1554.539551 
	C3750.164795,1557.682129 3749.577637,1559.543945 3748.379150,1560.840942 
	C3738.246338,1571.807007 3728.214111,1582.884033 3717.616211,1593.387451 
	C3715.446533,1595.537964 3711.037598,1596.207642 3707.652100,1596.231079 
	C3677.658447,1596.438965 3647.662354,1596.347290 3617.667236,1596.344238 
	C3614.379150,1596.343872 3611.091064,1596.344238 3606.389404,1596.344238 
	C3606.389404,1600.465820 3606.389404,1603.985962 3606.389404,1607.506104 
	C3606.389404,1698.158447 3606.389404,1788.810669 3606.389160,1879.463013 
	C3606.389160,1881.462646 3606.391357,1883.462402 3606.385742,1885.462036 
	C3606.351562,1897.646973 3606.351074,1897.661987 3594.275635,1897.671509 
	C3574.945312,1897.686890 3555.615234,1897.679932 3536.284912,1897.682373 
	C3533.358643,1897.682739 3530.432617,1897.682373 3526.402100,1897.682373 
	C3526.402100,1797.065186 3526.402100,1697.290283 3526.402100,1596.343384 
	C3522.072754,1596.343384 3518.843994,1596.343384 3515.615234,1596.343506 
	C3484.953369,1596.345337 3454.287354,1596.063965 3423.633057,1596.552856 
	C3416.206299,1596.671143 3411.158203,1594.386597 3406.356201,1589.100952 
	C3396.986328,1578.787231 3387.145996,1568.900879 3376.754395,1558.059204 
	C3368.218750,1566.868042 3359.787354,1575.552246 3351.377686,1584.257080 
	C3348.179199,1587.567505 3345.180664,1591.091431 3341.781494,1594.176758 
	C3340.464844,1595.371826 3338.338135,1595.975952 3336.497070,1596.218994 
	C3333.875000,1596.565063 3331.176514,1596.342529 3328.510498,1596.342529 
	C3111.211670,1596.343384 2893.912842,1596.342407 2676.614014,1596.341553 
	C2673.373779,1596.341553 2670.133789,1596.341553 2666.283936,1596.341553 
	C2666.283936,1582.190918 2666.283936,1569.023315 2666.283936,1554.355957 
	C2717.658936,1554.292236 2768.842285,1554.326904 2820.024902,1554.321289 
	C2871.016602,1554.315796 2922.008301,1554.318604 2974.000000,1554.317749 
z"/>
<path fill="#EBEBEB" opacity="1.000000" stroke="none" 
	d="
M2672.460449,1898.278564 
	C2670.608154,1894.892822 2669.703369,1891.560669 2668.684814,1887.809570 
	C2663.186035,1889.111816 2657.065674,1890.179565 2651.190674,1892.027344 
	C2636.152100,1896.757324 2620.632324,1897.756592 2605.079102,1898.259399 
	C2593.093506,1898.646973 2581.085205,1898.354980 2569.087158,1898.320312 
	C2550.856201,1898.267700 2533.644043,1893.506348 2517.160156,1886.221313 
	C2496.802490,1877.224243 2487.153320,1859.625610 2482.530273,1839.192261 
	C2479.767334,1826.980591 2478.115723,1814.292114 2477.861572,1801.779541 
	C2476.983398,1758.590820 2476.895264,1715.385376 2476.591553,1672.185791 
	C2476.402344,1645.238770 2476.514648,1618.288574 2476.153564,1591.344360 
	C2476.067139,1584.898193 2478.033936,1580.247559 2482.557129,1575.541870 
	C2503.270264,1553.993286 2523.529785,1532.009399 2544.027344,1510.252686 
	C2547.371582,1506.703125 2551.093994,1503.509888 2556.109863,1498.762329 
	C2556.683838,1504.630005 2557.413330,1508.710815 2557.430908,1512.794800 
	C2557.600098,1552.421143 2557.691406,1592.047852 2557.723877,1631.674561 
	C2557.763184,1679.999634 2557.800293,1728.325073 2557.667480,1776.649780 
	C2557.633545,1789.070435 2559.470947,1801.157959 2563.387939,1812.843506 
	C2568.011230,1826.636353 2577.002686,1836.404175 2591.862305,1838.931274 
	C2606.072266,1841.347900 2620.453857,1841.426758 2633.875977,1835.409302 
	C2650.845459,1827.801270 2659.205078,1813.245605 2661.995605,1795.661987 
	C2664.223389,1781.623535 2665.949463,1767.357788 2666.131836,1753.170166 
	C2666.667236,1711.516724 2666.322510,1669.852173 2666.322510,1628.191895 
	C2666.322510,1622.579468 2666.322266,1616.966919 2666.322266,1611.339600 
	C2673.078125,1609.238281 2729.420410,1608.603638 2745.893066,1610.519165 
	C2745.893066,1705.973389 2745.893066,1801.485840 2745.893066,1898.332031 
	C2721.763184,1898.332031 2697.585693,1898.332031 2672.460449,1898.278564 
z"/>
<path fill="#EBEBEB" opacity="1.000000" stroke="none" 
	d="
M2649.890869,1244.004883 
	C2661.081055,1227.712769 2673.947021,1214.242798 2690.188721,1203.886230 
	C2707.501709,1192.846802 2725.747314,1185.066406 2746.217773,1182.038574 
	C2767.830078,1178.841919 2789.102783,1179.873169 2810.496582,1183.663208 
	C2823.564209,1185.978271 2835.354004,1191.431885 2846.218018,1198.286499 
	C2862.849609,1208.779907 2877.309814,1221.763062 2888.026123,1238.840942 
	C2898.224854,1255.094482 2906.000000,1272.177124 2909.584717,1290.932129 
	C2912.248291,1304.869385 2914.142822,1318.995605 2915.495605,1333.122314 
	C2916.111816,1339.560791 2914.593750,1346.203491 2913.983887,1353.466553 
	C2845.183594,1353.466553 2777.000732,1353.466553 2708.935303,1353.466553 
	C2705.064209,1380.452881 2720.691406,1416.446533 2756.468506,1421.316040 
	C2773.779053,1423.672241 2791.650879,1424.917969 2808.275146,1416.153931 
	C2819.343994,1410.318359 2829.404785,1403.248169 2835.009277,1391.875244 
	C2837.630859,1386.555542 2840.995850,1385.502563 2845.982178,1385.602295 
	C2860.958496,1385.901733 2875.936523,1386.121094 2890.914551,1386.317505 
	C2896.833252,1386.395142 2902.753662,1386.330200 2909.401855,1386.330200 
	C2908.703125,1389.617310 2908.531006,1392.621094 2907.434326,1395.237183 
	C2899.322510,1414.588135 2890.245605,1433.380981 2875.058838,1448.444092 
	C2858.806885,1464.563843 2839.095215,1474.022461 2817.144775,1479.902222 
	C2797.842773,1485.072510 2778.229004,1485.395142 2758.750000,1484.104370 
	C2713.204102,1481.086060 2675.356934,1462.559814 2650.050293,1423.481567 
	C2634.307861,1399.172729 2625.650879,1371.985107 2625.758057,1342.656982 
	C2625.806641,1329.406250 2625.974121,1316.020508 2627.827393,1302.942627 
	C2630.784668,1282.075439 2638.245850,1262.564453 2649.890869,1244.004883 
M2788.999756,1299.641846 
	C2803.178711,1299.641846 2817.357666,1299.641846 2831.675049,1299.641846 
	C2824.273193,1255.964111 2802.712646,1237.744995 2759.400146,1242.260620 
	C2730.686768,1245.254150 2706.518066,1272.436890 2708.368408,1299.643066 
	C2734.528809,1299.643066 2760.764404,1299.643066 2788.999756,1299.641846 
z"/>
<path fill="#EBEBEB" opacity="1.000000" stroke="none" 
	d="
M3628.016602,1484.333496 
	C3592.232666,1484.159912 3559.947754,1475.679688 3532.238037,1453.918457 
	C3516.155029,1441.288330 3503.225342,1425.622192 3494.740234,1406.837891 
	C3478.496826,1370.878418 3476.298340,1333.445557 3483.113525,1294.931763 
	C3486.589111,1275.291138 3494.014648,1257.465454 3504.655029,1240.869263 
	C3516.555176,1222.308594 3532.577637,1208.011353 3552.050293,1197.836792 
	C3582.368652,1181.995361 3614.617188,1177.702515 3648.513672,1181.293579 
	C3666.906494,1183.242065 3684.333008,1187.136108 3701.071289,1195.109619 
	C3723.869873,1205.970093 3742.361084,1221.655762 3755.655273,1242.963257 
	C3771.479736,1268.325928 3778.781738,1296.218384 3778.422852,1326.212769 
	C3778.216309,1343.492065 3778.282227,1360.647705 3774.162598,1377.672607 
	C3769.245117,1397.994385 3760.574951,1416.351685 3747.763672,1432.699219 
	C3727.686279,1458.318359 3701.020264,1473.062012 3669.442383,1479.980591 
	C3656.041504,1482.916504 3642.680176,1484.702026 3628.016602,1484.333496 
M3645.958984,1421.662964 
	C3670.110107,1416.250244 3684.789307,1399.964600 3691.629883,1377.626221 
	C3698.741211,1354.402832 3700.206055,1330.263428 3695.863525,1305.914185 
	C3693.326904,1291.689697 3689.722168,1278.148560 3681.048096,1266.368042 
	C3666.672852,1246.844727 3646.778809,1240.447021 3623.385498,1241.628174 
	C3592.777588,1243.173462 3573.002930,1264.663330 3565.821289,1292.191040 
	C3559.617920,1315.969360 3560.478027,1340.134644 3563.770508,1364.294434 
	C3565.464844,1376.725342 3570.375488,1388.133911 3577.304443,1398.126099 
	C3584.283447,1408.190308 3593.639893,1416.368530 3606.098145,1419.958984 
	C3618.708008,1423.593140 3631.430908,1423.509399 3645.958984,1421.662964 
z"/>
<path fill="#EBEBEB" opacity="1.000000" stroke="none" 
	d="
M3342.948242,1182.780518 
	C3365.083252,1185.253052 3384.395996,1192.622803 3401.131592,1205.982056 
	C3417.181885,1218.794434 3428.072021,1235.080688 3431.854248,1255.575195 
	C3432.866943,1261.062744 3433.319580,1266.653687 3434.176270,1273.343506 
	C3408.492188,1273.343506 3383.727295,1273.343506 3358.810791,1273.343506 
	C3356.751709,1267.546021 3354.892578,1261.586548 3352.526123,1255.835815 
	C3349.759277,1249.112305 3344.818359,1244.695435 3337.990723,1241.677612 
	C3317.614502,1232.671143 3297.006348,1230.925171 3276.210938,1239.330933 
	C3263.863770,1244.321655 3259.009521,1254.855957 3262.527588,1266.822876 
	C3264.762207,1274.424194 3270.636719,1279.266113 3277.359131,1282.102661 
	C3288.013184,1286.598267 3298.987061,1290.634155 3310.174805,1293.503784 
	C3333.267334,1299.426758 3356.908936,1303.378052 3379.726318,1310.155640 
	C3401.611816,1316.656738 3421.424805,1327.371704 3433.673584,1348.379639 
	C3439.555420,1358.467529 3441.884033,1369.182739 3442.378662,1380.624146 
	C3443.540283,1407.494751 3435.788818,1431.247559 3416.735596,1450.415649 
	C3402.654297,1464.581909 3385.168945,1473.091187 3365.711914,1477.905518 
	C3342.250000,1483.710693 3318.415039,1486.070557 3294.494629,1484.117920 
	C3268.386963,1481.986938 3242.418945,1478.048340 3219.348633,1463.959717 
	C3192.622559,1447.638184 3177.879150,1423.650146 3173.882812,1392.837891 
	C3173.467285,1389.634644 3173.826904,1386.330933 3173.826904,1382.351562 
	C3199.631348,1382.351562 3224.781006,1382.351562 3250.206055,1382.351562 
	C3250.686279,1383.654419 3251.553955,1384.879272 3251.517578,1386.076538 
	C3250.868896,1407.337280 3271.614502,1424.412476 3290.385742,1427.906006 
	C3302.850342,1430.225830 3315.370117,1430.547363 3327.939453,1428.112915 
	C3338.843750,1426.000732 3348.216064,1420.931396 3354.918945,1412.388550 
	C3364.134766,1400.642700 3363.919922,1385.494995 3351.433350,1376.421387 
	C3346.155518,1372.586304 3340.108643,1369.164429 3333.887451,1367.389771 
	C3311.910645,1361.120605 3289.600098,1356.019287 3267.625977,1349.742065 
	C3252.092529,1345.304810 3236.109375,1342.544922 3221.356201,1335.099854 
	C3194.020020,1321.304688 3178.048096,1299.488037 3180.078613,1267.667358 
	C3181.049072,1252.460083 3183.922852,1238.164673 3192.095703,1225.126831 
	C3199.504395,1213.307129 3209.438232,1204.126099 3221.579590,1197.553467 
	C3233.278809,1191.220459 3245.597656,1186.133179 3258.911865,1184.295410 
	C3279.280029,1181.484131 3299.635986,1178.154419 3320.337402,1180.319092 
	C3327.589844,1181.077637 3334.848389,1181.776123 3342.948242,1182.780518 
z"/>
<path fill="#EBEBEB" opacity="1.000000" stroke="none" 
	d="
M3703.073730,1620.733276 
	C3722.776611,1613.081909 3742.311035,1608.164917 3762.813232,1608.372681 
	C3795.783691,1608.706787 3825.669678,1618.138916 3850.443115,1640.486694 
	C3861.028564,1650.035522 3869.917480,1661.279419 3876.650391,1674.082275 
	C3892.679932,1704.562744 3898.577148,1736.975098 3895.813477,1772.295532 
	C3891.990234,1772.779053 3888.191650,1773.673096 3884.391846,1773.678345 
	C3824.394043,1773.761841 3764.396484,1773.731201 3704.398682,1773.726685 
	C3703.151123,1773.726562 3701.903320,1773.726562 3701.103760,1773.726562 
	C3700.448242,1774.334473 3700.000244,1774.550903 3699.988037,1774.789673 
	C3699.187988,1790.333740 3704.528076,1804.212769 3712.656006,1816.914429 
	C3722.010498,1831.532349 3737.365234,1836.759399 3753.388672,1839.077759 
	C3775.951172,1842.342285 3796.288818,1836.584351 3812.930176,1820.373169 
	C3816.215820,1817.172363 3819.228027,1813.358276 3821.228271,1809.270142 
	C3823.023926,1805.600708 3825.601074,1804.380493 3828.994629,1804.375610 
	C3848.652832,1804.347290 3868.311035,1804.473389 3887.968994,1804.602783 
	C3888.502197,1804.606323 3889.031250,1805.241333 3889.822998,1805.749023 
	C3888.319092,1820.637085 3880.728027,1833.181519 3872.874512,1845.324097 
	C3857.830811,1868.583374 3836.384277,1882.922852 3809.700928,1890.778564 
	C3772.177490,1901.825562 3735.361328,1900.008179 3699.756104,1885.220337 
	C3670.852783,1873.215942 3649.635498,1851.783691 3636.860352,1822.924805 
	C3619.587158,1783.905029 3618.989014,1743.417236 3630.401611,1703.130493 
	C3639.919922,1669.531616 3661.341064,1644.129150 3691.861816,1626.739624 
	C3695.324219,1624.766968 3698.864502,1622.931274 3703.073730,1620.733276 
M3718.830322,1681.732788 
	C3707.186768,1692.913574 3701.092285,1706.539795 3699.503906,1723.684204 
	C3704.019287,1723.684204 3707.272461,1723.684082 3710.525391,1723.684204 
	C3741.089600,1723.684326 3771.653809,1723.748901 3802.217529,1723.620728 
	C3807.321289,1723.599243 3812.421631,1722.740234 3817.831787,1722.239624 
	C3816.958496,1711.575684 3813.328857,1702.963745 3809.031738,1694.276245 
	C3798.677734,1673.344116 3780.612061,1666.526978 3759.191162,1666.508545 
	C3744.675293,1666.495972 3731.401367,1671.632446 3718.830322,1681.732788 
z"/>
<path fill="#EBEBEB" opacity="1.000000" stroke="none" 
	d="
M2966.255615,1785.515869 
	C2961.973877,1768.597412 2962.931885,1752.233887 2964.461670,1736.080444 
	C2967.722168,1701.646118 2980.222900,1671.102539 3005.724609,1646.871460 
	C3021.344238,1632.030151 3039.338135,1621.546753 3060.275635,1615.236328 
	C3073.511719,1611.246948 3086.867920,1608.624023 3100.263672,1608.608154 
	C3146.243408,1608.553589 3184.077637,1625.475952 3210.559814,1664.588989 
	C3228.486328,1691.065186 3235.704834,1720.536011 3236.322998,1752.019653 
	C3236.446533,1758.312988 3236.340576,1764.610840 3236.340576,1771.971924 
	C3171.054443,1771.971924 3106.283936,1771.971924 3041.042969,1771.971924 
	C3040.833740,1788.875854 3044.384521,1803.531006 3053.172363,1816.902466 
	C3060.638672,1828.262939 3072.195312,1833.949341 3084.349854,1837.006836 
	C3101.966797,1841.438110 3119.787598,1840.850220 3136.543213,1831.999756 
	C3148.298828,1825.790527 3158.072021,1817.726807 3163.579590,1804.814331 
	C3185.795410,1804.814331 3207.957031,1804.814331 3230.985352,1804.814331 
	C3230.370361,1807.877197 3230.244629,1810.466675 3229.332031,1812.740356 
	C3221.758057,1831.611694 3212.646973,1849.643799 3197.983398,1864.123779 
	C3186.732422,1875.234619 3173.208008,1883.056885 3158.350098,1888.247681 
	C3139.447510,1894.851929 3119.864990,1898.424438 3099.816895,1897.647827 
	C3062.216553,1896.191162 3027.983643,1885.780640 3001.163818,1857.677246 
	C2984.298096,1840.004272 2973.227295,1819.128540 2968.262451,1795.115845 
	C2967.658447,1792.194214 2966.971924,1789.289673 2966.255615,1785.515869 
M3153.562256,1703.814209 
	C3152.395996,1701.429932 3151.068604,1699.109741 3150.091064,1696.650635 
	C3145.413818,1684.887939 3136.903076,1677.155518 3125.488281,1671.993042 
	C3114.443848,1666.998291 3102.983887,1667.162476 3091.397217,1668.211426 
	C3064.958008,1670.605347 3040.444336,1694.305542 3041.786377,1721.884277 
	C3080.232178,1721.884277 3118.686523,1721.884277 3158.566895,1721.884277 
	C3156.899902,1715.886353 3155.434082,1710.612793 3153.562256,1703.814209 
z"/>
<path fill="#EBEBEB" opacity="1.000000" stroke="none" 
	d="
M3264.707520,1722.670898 
	C3252.332031,1688.264771 3263.791260,1644.853271 3299.319824,1625.760986 
	C3314.587158,1617.556519 3330.791992,1613.302246 3347.395508,1610.669312 
	C3371.089600,1606.911743 3394.995605,1607.135498 3418.635498,1612.070190 
	C3435.907959,1615.675537 3452.633545,1620.727051 3467.058594,1631.526367 
	C3485.924316,1645.650635 3502.238770,1671.591797 3499.850342,1696.250000 
	C3492.644043,1698.877441 3440.963379,1699.281616 3428.455811,1696.741455 
	C3427.577393,1693.040161 3426.879639,1689.136230 3425.712646,1685.377808 
	C3422.992676,1676.615356 3417.102539,1670.126709 3408.814941,1666.894531 
	C3391.308594,1660.067505 3373.135010,1659.824341 3354.951172,1663.998413 
	C3345.339844,1666.204590 3339.031738,1672.248657 3337.801270,1682.298828 
	C3336.518311,1692.778198 3341.611572,1700.455444 3350.603271,1704.944092 
	C3363.368408,1711.316406 3377.057861,1715.013184 3391.081543,1717.912354 
	C3416.044678,1723.073120 3441.206543,1727.821167 3464.737061,1738.170410 
	C3485.132812,1747.140869 3501.480225,1761.011597 3506.241211,1783.424072 
	C3513.062012,1815.532593 3506.467773,1844.715088 3481.294922,1867.877319 
	C3460.990723,1886.560181 3435.719482,1892.846680 3409.429199,1896.216919 
	C3400.584473,1897.350708 3391.582520,1897.503540 3382.645996,1897.626953 
	C3361.968750,1897.912354 3341.727051,1894.817017 3321.956055,1888.801025 
	C3297.870117,1881.471802 3278.348633,1867.836182 3265.543457,1845.881714 
	C3257.599121,1832.261353 3253.697754,1817.343506 3254.588867,1800.023193 
	C3278.843994,1799.220947 3302.587158,1799.781616 3325.638184,1799.621460 
	C3326.690186,1801.193359 3327.350830,1801.720459 3327.355957,1802.253906 
	C3327.560059,1823.472656 3343.792236,1838.032471 3361.188232,1842.536499 
	C3378.746582,1847.082520 3395.953613,1846.855103 3412.685059,1839.379272 
	C3426.542236,1833.187622 3432.849121,1821.614502 3430.179199,1807.435181 
	C3428.127686,1796.540527 3419.559326,1791.903931 3410.500000,1788.293213 
	C3391.967773,1780.906616 3372.449463,1776.960815 3353.166260,1772.111206 
	C3336.499512,1767.919678 3319.476074,1765.016602 3303.538330,1757.841675 
	C3286.871826,1750.338623 3273.356445,1739.915405 3264.707520,1722.670898 
z"/>
<path fill="#E9E9E9" opacity="1.000000" stroke="none" 
	d="
M712.315613,1441.999756 
	C712.315613,1299.747437 712.315613,1158.495117 712.315613,1016.323914 
	C714.512329,1016.991150 716.258667,1017.032776 717.297791,1017.911133 
	C730.976685,1029.472656 744.567017,1041.139404 758.153259,1052.810303 
	C762.078857,1056.182495 763.859497,1060.074097 763.856018,1065.698120 
	C763.694153,1326.589111 763.734192,1587.480103 763.746460,1848.371216 
	C763.746765,1855.348389 763.474854,1862.334595 763.760681,1869.298950 
	C763.918091,1873.133789 762.642944,1875.925171 759.413208,1877.531738 
	C744.347168,1885.027222 729.089233,1892.086426 712.315613,1897.547241 
	C712.315613,1745.441162 712.315613,1594.220581 712.315613,1441.999756 
z"/>
<path fill="#EBEBEB" opacity="1.000000" stroke="none" 
	d="
M2951.664062,1253.999756 
	C2951.662598,1229.043701 2951.662598,1205.087646 2951.662598,1180.377197 
	C2978.216309,1180.377197 3004.298340,1180.377197 3031.036621,1180.377197 
	C3031.399658,1183.744873 3031.744629,1186.942749 3032.138672,1190.595703 
	C3068.010742,1174.153564 3105.243408,1180.049194 3141.742920,1182.488647 
	C3142.678955,1183.865723 3143.359619,1184.399658 3143.358398,1184.932129 
	C3143.314209,1208.194214 3143.218994,1231.456177 3143.087402,1254.718018 
	C3143.080322,1255.982910 3142.707520,1257.245850 3142.539062,1258.295410 
	C3130.666748,1258.104980 3119.152344,1258.110962 3107.653076,1257.693359 
	C3088.256592,1256.989014 3072.014893,1264.174683 3058.216064,1277.272339 
	C3050.665283,1284.439453 3045.068359,1293.132202 3041.929688,1303.078613 
	C3038.025391,1315.450928 3035.675537,1328.119019 3035.688965,1341.213257 
	C3035.734619,1386.181152 3035.603027,1431.149292 3035.519531,1476.117310 
	C3035.515869,1478.069458 3035.319580,1480.021362 3035.220459,1481.839355 
	C3028.000732,1484.084229 2963.778320,1484.570068 2951.665527,1482.383301 
	C2951.665527,1406.719971 2951.665527,1330.859985 2951.664062,1253.999756 
z"/>
<path fill="#EAEAEA" opacity="1.000000" stroke="none" 
	d="
M2173.870605,1867.791016 
	C2184.840820,1849.263916 2195.671143,1830.651978 2206.817383,1812.231445 
	C2220.696289,1789.294556 2234.873535,1766.538330 2248.853516,1743.662354 
	C2265.121094,1717.043091 2281.352295,1690.401367 2297.514404,1663.718018 
	C2301.634521,1656.915771 2305.434082,1649.919556 2310.118164,1641.722290 
	C2274.826172,1632.553711 2239.430908,1625.228027 2201.987549,1617.234253 
	C2219.867920,1601.511841 2236.464600,1587.078857 2252.878174,1572.440552 
	C2269.456543,1557.655273 2285.822021,1542.631348 2302.338867,1527.776855 
	C2318.641357,1513.114868 2335.013184,1498.529785 2351.361572,1483.918701 
	C2367.928467,1469.112549 2384.224854,1453.987915 2401.154053,1439.608032 
	C2417.973145,1425.321411 2433.123779,1408.906250 2453.503906,1398.854736 
	C2455.882080,1401.769653 2455.477295,1405.033813 2452.760254,1409.069824 
	C2442.763916,1423.918335 2433.327148,1439.142822 2423.365234,1454.015015 
	C2414.503174,1467.245239 2405.184326,1480.168213 2396.139404,1493.276855 
	C2382.194092,1513.487793 2368.272217,1533.714966 2354.419678,1553.989746 
	C2349.223389,1561.595337 2344.249512,1569.353271 2338.156738,1578.583374 
	C2375.483398,1587.155640 2411.696289,1593.801758 2449.260254,1602.354492 
	C2360.342285,1693.256958 2272.867188,1782.684692 2184.847168,1871.750122 
	C2184.200928,1870.924316 2184.099854,1870.460571 2184.066650,1869.305176 
	C2183.676514,1867.920532 2183.015381,1866.565674 2182.790771,1866.634521 
	C2179.807129,1867.549316 2176.884277,1868.663574 2174.115234,1869.236572 
	C2174.146240,1868.426880 2174.008545,1868.109009 2173.870605,1867.791016 
z"/>
<path fill="#EAEAEA" opacity="1.000000" stroke="none" 
	d="
M3897.605469,1344.000244 
	C3897.605469,1390.906616 3897.605469,1436.813110 3897.605469,1482.555420 
	C3890.217529,1484.711426 3834.173828,1485.406250 3817.045410,1483.623535 
	C3817.045410,1351.383423 3817.045410,1219.064453 3817.045410,1086.199585 
	C3843.585938,1086.199585 3870.032959,1086.199585 3897.605225,1086.199585 
	C3897.605225,1172.061890 3897.605225,1257.531006 3897.605469,1344.000244 
z"/>
<path fill="#ECECEC" opacity="1.000000" stroke="none" 
	d="
M2763.656494,1847.999756 
	C2763.656982,1768.356323 2763.656982,1689.712891 2763.656982,1610.367188 
	C2788.776611,1610.367188 2813.574219,1610.367188 2838.940430,1610.367188 
	C2839.340332,1612.622192 2839.780273,1615.103882 2840.254150,1617.775757 
	C2841.158203,1617.775757 2842.281250,1618.127441 2842.940186,1617.723022 
	C2852.800293,1611.669434 2863.741699,1608.924438 2875.049561,1608.302856 
	C2898.287598,1607.025146 2921.542480,1606.829712 2944.539551,1610.206299 
	C2947.004639,1618.225464 2947.032959,1675.651489 2944.553467,1683.986450 
	C2936.788574,1683.383179 2928.929932,1682.603516 2921.051758,1682.198120 
	C2907.637939,1681.507812 2894.544189,1683.092529 2882.225586,1688.836304 
	C2868.118896,1695.413452 2857.714600,1705.896851 2851.815186,1720.203735 
	C2846.747314,1732.493652 2843.477539,1745.310303 2843.661377,1758.889771 
	C2843.941162,1779.552490 2843.907959,1800.223633 2843.674316,1820.887573 
	C2843.498047,1836.493652 2842.700928,1852.092041 2842.372070,1867.697754 
	C2842.171875,1877.200684 2842.335449,1886.711060 2842.335449,1896.943604 
	C2816.065918,1896.943604 2790.333496,1896.943604 2763.656006,1896.943604 
	C2763.656006,1880.827637 2763.656006,1864.913696 2763.656494,1847.999756 
z"/>
<path fill="#EDEDED" opacity="1.000000" stroke="none" 
	d="
M2050.382324,1606.000244 
	C2050.381836,1696.578247 2050.381836,1786.156128 2050.381836,1876.690674 
	C2033.317139,1883.884766 2016.384277,1891.023315 1998.364746,1898.619995 
	C1998.089844,1895.075195 1997.688354,1892.311401 1997.687866,1889.547729 
	C1997.658447,1696.023071 1997.658569,1502.498413 1997.667847,1308.973755 
	C1997.668335,1299.415527 1997.737183,1299.468384 2006.430420,1296.026245 
	C2018.458984,1291.263428 2030.437744,1286.374512 2042.474609,1281.633423 
	C2044.532837,1280.822876 2046.775635,1280.481079 2050.382568,1279.547852 
	C2050.382568,1388.695679 2050.382568,1496.847900 2050.382324,1606.000244 
z"/>
<path fill="#EBEBEB" opacity="1.000000" stroke="none" 
	d="
M1998.336060,262.089996 
	C1998.336060,254.483719 1998.336060,247.861267 1998.336060,240.306915 
	C2007.548218,241.728745 2015.931885,242.907547 2024.271484,244.342102 
	C2032.679443,245.788391 2041.043823,247.488571 2050.329834,249.248581 
	C2050.329834,252.678192 2050.329834,255.927414 2050.329590,259.176636 
	C2050.321045,383.428070 2050.313721,507.679535 2050.302246,631.930969 
	C2050.301270,642.046387 2050.229248,641.900391 2041.193237,645.607544 
	C2027.135376,651.375061 2013.168091,657.364075 1998.336060,663.607117 
	C1998.336060,596.331238 1998.336182,529.638245 1998.336182,462.945312 
	C1998.336182,396.321472 1998.336060,329.697662 1998.336060,262.089996 
z"/>
<path fill="#ECECEC" opacity="1.000000" stroke="none" 
	d="
M2050.328613,1201.541138 
	C2050.329102,1205.457642 2050.329102,1208.432251 2050.329102,1211.958496 
	C2032.890259,1217.932983 2015.824585,1223.779785 1998.090088,1229.855591 
	C1998.090088,1140.703613 1998.090088,1053.130371 1998.090088,964.487854 
	C2015.069092,961.529480 2031.806763,958.613098 2050.263916,955.397217 
	C2050.409912,1038.235840 2050.407959,1119.417236 2050.328613,1201.541138 
z"/>
<path fill="#E6E6E6" opacity="1.000000" stroke="none" 
	d="
M3942.670898,1035.111572 
	C3936.038086,1019.367249 3930.860352,1004.109985 3932.261963,987.310425 
	C3933.998779,966.488831 3941.165283,947.882080 3954.929932,932.226379 
	C3970.230957,914.822998 3989.882080,904.540466 4012.798828,902.085510 
	C4039.778809,899.195374 4064.427734,906.243835 4084.452881,925.070618 
	C4113.942383,952.794922 4120.778809,987.292236 4108.209473,1024.447998 
	C4098.954102,1051.808105 4078.791016,1070.018066 4050.362061,1078.965332 
	C4020.685059,1088.305420 3994.125000,1082.338745 3969.248291,1065.434448 
	C3958.075684,1057.842285 3949.895020,1047.315796 3942.670898,1035.111572 
M3972.786865,939.767822 
	C3948.455322,962.836914 3944.606934,995.762146 3956.450195,1022.113525 
	C3971.409180,1055.398804 4005.318115,1072.067993 4041.223145,1062.942993 
	C4069.303955,1055.806519 4087.416992,1037.057983 4094.127197,1008.997437 
	C4101.177734,979.512756 4091.834717,953.856628 4068.681396,935.174377 
	C4040.122803,912.130432 4001.266113,914.122253 3972.786865,939.767822 
z"/>
<path fill="#E9E9E9" opacity="1.000000" stroke="none" 
	d="
M3883.668213,1554.301025 
	C3888.533447,1554.300903 3892.442139,1554.300903 3897.039062,1554.300903 
	C3897.039062,1568.488770 3897.039062,1581.629272 3897.039062,1595.464722 
	C3894.956299,1595.753174 3892.769775,1596.315430 3890.582275,1596.319946 
	C3860.260986,1596.380737 3829.938721,1596.268311 3799.618896,1596.469238 
	C3794.929199,1596.500366 3791.427490,1595.327148 3788.270996,1591.852539 
	C3778.664795,1581.278809 3768.831055,1570.911987 3759.174561,1560.383301 
	C3758.141846,1559.257202 3757.691895,1557.596802 3756.115234,1554.504395 
	C3771.112061,1554.135620 3784.935547,1554.355835 3798.744873,1554.311035 
	C3812.739502,1554.265747 3826.733887,1554.300903 3840.728516,1554.300903 
	C3854.722900,1554.300903 3868.717041,1554.300903 3883.668213,1554.301025 
z"/>
<path fill="#C0C0C0" opacity="1.000000" stroke="none" 
	d="
M637.260559,444.671844 
	C692.784668,494.378662 748.284180,544.112366 803.572021,594.077942 
	C802.880981,594.879761 802.189880,595.681580 801.498779,596.483337 
	C796.249329,591.856201 790.955933,587.277832 785.758362,582.593140 
	C768.040344,566.623291 750.382080,550.587097 732.649902,534.633118 
	C720.884705,524.047852 709.007202,513.587463 697.224609,503.021423 
	C679.467712,487.097778 661.740845,471.140564 644.024902,455.171265 
	C641.321594,452.734467 638.745850,450.156067 636.280273,446.596252 
	C636.719788,445.256897 636.990173,444.964386 637.260559,444.671844 
z"/>
<path fill="#C0C0C0" opacity="1.000000" stroke="none" 
	d="
M1058.758423,827.278076 
	C1033.572632,804.774048 1008.384705,782.272339 983.201416,759.765503 
	C960.458984,739.440125 937.585876,719.257080 915.106628,698.644531 
	C911.038513,694.914246 908.595703,689.411499 905.402466,684.726990 
	C904.769714,685.156738 904.136902,685.586426 903.504150,686.016113 
	C905.020508,686.489014 906.922852,686.532227 907.997192,687.497253 
	C939.776855,716.043396 971.437622,744.721741 1003.202576,773.284363 
	C1016.235718,785.003662 1029.517456,796.446106 1042.582275,808.130798 
	C1048.474365,813.400391 1054.112183,818.954468 1059.706787,825.409790 
	C1059.284912,826.719421 1059.021729,826.998718 1058.758423,827.278076 
z"/>
<path fill="#C0C0C0" opacity="1.000000" stroke="none" 
	d="
M537.610718,358.368774 
	C533.468872,355.183472 529.112549,352.238983 525.220520,348.773224 
	C502.197418,328.271759 479.286560,307.644318 456.328827,287.069458 
	C443.032013,275.152740 429.682068,263.294769 416.460815,251.294891 
	C414.943268,249.917542 414.101227,247.795914 412.945984,246.019363 
	C413.464813,245.553619 413.983612,245.087875 414.502411,244.622131 
	C455.848450,281.654419 497.194489,318.686707 538.502014,356.642029 
	C538.179260,357.832977 537.894958,358.100861 537.610718,358.368774 
z"/>
<path fill="#C0C0C0" opacity="1.000000" stroke="none" 
	d="
M835.266235,622.676147 
	C858.037537,641.810547 879.788086,662.052673 903.250610,683.731689 
	C894.871887,681.483154 862.111511,653.245117 834.304321,624.557190 
	C834.743591,623.238708 835.004944,622.957458 835.266235,622.676147 
z"/>
<path fill="#C0C0C0" opacity="1.000000" stroke="none" 
	d="
M624.785583,437.575317 
	C605.794373,420.525879 586.799316,403.480682 567.843506,386.391937 
	C567.510437,386.091705 567.650024,385.267120 567.268982,382.536865 
	C588.402466,399.651337 606.630188,417.644928 625.775574,435.433411 
	C625.303955,436.896973 625.044800,437.236145 624.785583,437.575317 
z"/>
<path fill="#C0C0C0" opacity="1.000000" stroke="none" 
	d="
M1158.254150,913.752686 
	C1166.841309,920.933289 1175.568604,927.953979 1183.980835,935.333923 
	C1195.141113,945.124634 1206.055420,955.195862 1217.453979,965.488220 
	C1214.115601,967.616089 1211.879150,965.283081 1209.920410,963.533203 
	C1196.076782,951.166260 1182.340576,938.679077 1168.564819,926.236084 
	C1164.885864,922.913025 1161.188110,919.610779 1157.490356,915.407593 
	C1157.739136,914.261780 1157.996704,914.007263 1158.254150,913.752686 
z"/>
<path fill="#C0C0C0" opacity="1.000000" stroke="none" 
	d="
M2173.260742,1868.091797 
	C2174.008545,1868.109009 2174.146240,1868.426880 2174.176270,1869.914917 
	C2173.045410,1873.077148 2172.022705,1875.069458 2170.549805,1877.610107 
	C2169.508301,1881.344238 2170.561768,1881.680542 2173.513672,1879.460938 
	C2177.413086,1876.093994 2180.705811,1873.045288 2183.998535,1869.996582 
	C2184.099854,1870.460571 2184.200928,1870.924316 2184.246094,1872.097778 
	C2176.250977,1880.777588 2168.312012,1888.747559 2160.373291,1896.717651 
	C2159.763428,1896.234863 2159.153809,1895.752075 2158.544189,1895.269287 
	C2161.108887,1885.269409 2167.289551,1877.030518 2173.260742,1868.091797 
M2169.787842,1882.969604 
	C2169.384277,1882.810303 2168.980957,1882.650879 2168.577393,1882.491455 
	C2168.698975,1882.933105 2168.820557,1883.374756 2169.787842,1882.969604 
z"/>
<path fill="#C0C0C0" opacity="1.000000" stroke="none" 
	d="
M1071.226074,834.849243 
	C1081.140625,843.598145 1091.186157,852.204712 1100.914185,861.156250 
	C1105.776367,865.630127 1112.298340,868.661072 1113.573853,876.720825 
	C1099.047852,863.698364 1084.521851,850.675964 1070.219482,836.630859 
	C1070.704102,835.355286 1070.965088,835.102234 1071.226074,834.849243 
z"/>
<path fill="#C0C0C0" opacity="1.000000" stroke="none" 
	d="
M538.901794,357.176270 
	C548.809937,365.305420 558.279846,373.823364 567.749695,382.341339 
	C567.164856,383.004150 566.580078,383.666992 565.995239,384.329803 
	C556.035889,376.888367 546.945801,368.396179 537.852539,358.992188 
	C537.894958,358.100861 538.179260,357.832977 538.901794,357.176270 
z"/>
<path fill="#C0C0C0" opacity="1.000000" stroke="none" 
	d="
M824.720154,617.281555 
	C817.402771,610.719299 810.085327,604.157104 802.767944,597.594849 
	C803.394409,596.889038 804.020874,596.183228 804.647400,595.477417 
	C811.654114,601.822876 818.660889,608.168396 825.582031,615.494263 
	C825.237671,616.743530 824.978943,617.012512 824.720154,617.281555 
z"/>
<path fill="#C0C0C0" opacity="1.000000" stroke="none" 
	d="
M1136.748779,897.286926 
	C1129.545288,890.493591 1121.074463,884.976807 1115.559448,876.410034 
	C1124.161987,881.057434 1131.196411,887.554382 1137.776123,895.387634 
	C1137.281494,896.723877 1137.015137,897.005371 1136.748779,897.286926 
z"/>
<path fill="#C0C0C0" opacity="1.000000" stroke="none" 
	d="
M1157.081909,914.883850 
	C1150.307495,909.609558 1143.932739,903.967590 1137.153442,897.806274 
	C1137.015137,897.005371 1137.281494,896.723877 1137.958740,896.030884 
	C1144.870972,901.235840 1151.372437,906.852295 1158.064087,913.110718 
	C1157.996704,914.007263 1157.739136,914.261780 1157.081909,914.883850 
z"/>
<path fill="#C0C0C0" opacity="1.000000" stroke="none" 
	d="
M1059.953369,826.030884 
	C1063.730591,828.344360 1067.102539,831.066895 1070.850342,834.319336 
	C1070.965088,835.102234 1070.704102,835.355286 1070.046509,835.982361 
	C1066.286011,833.664612 1062.921997,830.972839 1059.158203,827.779541 
	C1059.021729,826.998718 1059.284912,826.719421 1059.953369,826.030884 
z"/>
<path fill="#C0C0C0" opacity="1.000000" stroke="none" 
	d="
M625.980469,436.072144 
	C629.763367,438.272156 633.129028,440.957794 636.877625,444.157654 
	C636.990173,444.964386 636.719788,445.256897 636.031982,445.976959 
	C632.286499,443.772400 628.958435,441.140259 625.208008,438.041748 
	C625.044800,437.236145 625.303955,436.896973 625.980469,436.072144 
z"/>
<path fill="#C0C0C0" opacity="1.000000" stroke="none" 
	d="
M825.895508,616.082153 
	C829.023682,617.684143 831.752625,619.678650 834.873901,622.174622 
	C835.004944,622.957458 834.743591,623.238708 834.076782,623.928955 
	C830.939209,622.326782 828.207092,620.315674 825.097595,617.793091 
	C824.978943,617.012512 825.237671,616.743530 825.895508,616.082153 
z"/>
<path fill="#ECECEC" opacity="1.000000" stroke="none" 
	d="
M2469.902588,1385.869385 
	C2469.773438,1386.478638 2469.545410,1386.954590 2469.317627,1387.430420 
	C2469.084473,1386.847168 2468.851562,1386.264038 2469.114746,1385.573486 
	C2469.611084,1385.466064 2469.803955,1385.735962 2469.902588,1385.869385 
z"/>
<path fill="#050505" opacity="1.000000" stroke="none" 
	d="
M2788.000000,1299.642456 
	C2760.764404,1299.643066 2734.528809,1299.643066 2708.368408,1299.643066 
	C2706.518066,1272.436890 2730.686768,1245.254150 2759.400146,1242.260620 
	C2802.712646,1237.744995 2824.273193,1255.964111 2831.675049,1299.641846 
	C2817.357666,1299.641846 2803.178711,1299.641846 2788.000000,1299.642456 
z"/>
<path fill="#010101" opacity="1.000000" stroke="none" 
	d="
M3645.112793,1421.763306 
	C3631.430908,1423.509399 3618.708008,1423.593140 3606.098145,1419.958984 
	C3593.639893,1416.368530 3584.283447,1408.190308 3577.304443,1398.126099 
	C3570.375488,1388.133911 3565.464844,1376.725342 3563.770508,1364.294434 
	C3560.478027,1340.134644 3559.617920,1315.969360 3565.821289,1292.191040 
	C3573.002930,1264.663330 3592.777588,1243.173462 3623.385498,1241.628174 
	C3646.778809,1240.447021 3666.672852,1246.844727 3681.048096,1266.368042 
	C3689.722168,1278.148560 3693.326904,1291.689697 3695.863525,1305.914185 
	C3700.206055,1330.263428 3698.741211,1354.402832 3691.629883,1377.626221 
	C3684.789307,1399.964600 3670.110107,1416.250244 3645.112793,1421.763306 
z"/>
<path fill="#050505" opacity="1.000000" stroke="none" 
	d="
M3719.339844,1681.215576 
	C3731.401367,1671.632446 3744.675293,1666.495972 3759.191162,1666.508545 
	C3780.612061,1666.526978 3798.677734,1673.344116 3809.031738,1694.276245 
	C3813.328857,1702.963745 3816.958496,1711.575684 3817.831787,1722.239624 
	C3812.421631,1722.740234 3807.321289,1723.599243 3802.217529,1723.620728 
	C3771.653809,1723.748901 3741.089600,1723.684326 3710.525391,1723.684204 
	C3707.272461,1723.684082 3704.019287,1723.684204 3699.503906,1723.684204 
	C3701.092285,1706.539795 3707.186768,1692.913574 3719.339844,1681.215576 
z"/>
<path fill="#020202" opacity="1.000000" stroke="none" 
	d="
M3153.765137,1704.576782 
	C3155.434082,1710.612793 3156.899902,1715.886353 3158.566895,1721.884277 
	C3118.686523,1721.884277 3080.232178,1721.884277 3041.786377,1721.884277 
	C3040.444336,1694.305542 3064.958008,1670.605347 3091.397217,1668.211426 
	C3102.983887,1667.162476 3114.443848,1666.998291 3125.488281,1671.993042 
	C3136.903076,1677.155518 3145.413818,1684.887939 3150.091064,1696.650635 
	C3151.068604,1699.109741 3152.395996,1701.429932 3153.765137,1704.576782 
z"/>
<path fill="#070707" opacity="1.000000" stroke="none" 
	d="
M2170.999756,1877.061646 
	C2172.022705,1875.069458 2173.045410,1873.077148 2174.007324,1870.406616 
	C2176.884277,1868.663574 2179.807129,1867.549316 2182.790771,1866.634521 
	C2183.015381,1866.565674 2183.676514,1867.920532 2184.066650,1869.305176 
	C2180.705811,1873.045288 2177.413086,1876.093994 2173.075195,1878.754639 
	C2171.686523,1877.931641 2171.343018,1877.496582 2170.999756,1877.061646 
z"/>
<path fill="#070707" opacity="1.000000" stroke="none" 
	d="
M3973.295410,939.260376 
	C4001.266113,914.122253 4040.122803,912.130432 4068.681396,935.174377 
	C4091.834717,953.856628 4101.177734,979.512756 4094.127197,1008.997437 
	C4087.416992,1037.057983 4069.303955,1055.806519 4041.223145,1062.942993 
	C4005.318115,1072.067993 3971.409180,1055.398804 3956.450195,1022.113525 
	C3944.606934,995.762146 3948.455322,962.836914 3973.295410,939.260376 
M4020.960693,941.687988 
	C4008.091553,941.687988 3995.222656,941.687988 3982.141602,941.687988 
	C3982.141602,976.385742 3982.141602,1009.864075 3982.141602,1043.592041 
	C3989.723633,1043.592041 3996.776611,1043.592041 4004.615723,1043.592041 
	C4004.615723,1030.689819 4004.615723,1018.503052 4004.615723,1005.713013 
	C4010.676758,1005.713013 4015.949219,1005.727478 4021.221924,1005.710388 
	C4039.150146,1005.652405 4040.007080,1006.606995 4040.402344,1024.952881 
	C4040.535645,1031.131226 4041.279297,1037.296387 4041.767578,1043.781372 
	C4051.197266,1044.509644 4059.487061,1044.691040 4069.490234,1043.614014 
	C4062.435547,1035.184814 4063.455322,1026.699829 4063.729736,1018.477234 
	C4064.033936,1009.368408 4062.208496,1001.302734 4054.693359,995.237061 
	C4055.692627,994.031128 4056.441650,992.934998 4057.375977,992.029968 
	C4066.517090,983.175110 4068.985596,971.558777 4064.329346,959.367981 
	C4059.693604,947.232361 4050.077393,942.481506 4037.927490,941.728210 
	C4032.949707,941.419617 4027.936523,941.684753 4020.960693,941.687988 
z"/>
<path fill="#070707" opacity="1.000000" stroke="none" 
	d="
M2172.468750,1879.072998 
	C2170.561768,1881.680542 2169.508301,1881.344238 2170.549805,1877.610107 
	C2171.343018,1877.496582 2171.686523,1877.931641 2172.468750,1879.072998 
z"/>
<path fill="#070707" opacity="1.000000" stroke="none" 
	d="
M2169.364746,1883.393066 
	C2168.820557,1883.374756 2168.698975,1882.933105 2168.577393,1882.491455 
	C2168.980957,1882.650879 2169.384277,1882.810303 2169.364746,1883.393066 
z"/>
<path fill="#E9E9E9" opacity="1.000000" stroke="none" 
	d="
M4021.950195,941.688477 
	C4027.936523,941.684753 4032.949707,941.419617 4037.927490,941.728210 
	C4050.077393,942.481506 4059.693604,947.232361 4064.329346,959.367981 
	C4068.985596,971.558777 4066.517090,983.175110 4057.375977,992.029968 
	C4056.441650,992.934998 4055.692627,994.031128 4054.693359,995.237061 
	C4062.208496,1001.302734 4064.033936,1009.368408 4063.729736,1018.477234 
	C4063.455322,1026.699829 4062.435547,1035.184814 4069.490234,1043.614014 
	C4059.487061,1044.691040 4051.197266,1044.509644 4041.767578,1043.781372 
	C4041.279297,1037.296387 4040.535645,1031.131226 4040.402344,1024.952881 
	C4040.007080,1006.606995 4039.150146,1005.652405 4021.221924,1005.710388 
	C4015.949219,1005.727478 4010.676758,1005.713013 4004.615723,1005.713013 
	C4004.615723,1018.503052 4004.615723,1030.689819 4004.615723,1043.592041 
	C3996.776611,1043.592041 3989.723633,1043.592041 3982.141602,1043.592041 
	C3982.141602,1009.864075 3982.141602,976.385742 3982.141602,941.687988 
	C3995.222656,941.687988 4008.091553,941.687988 4021.950195,941.688477 
M4005.932617,985.344421 
	C4015.793213,985.000366 4025.726318,985.262695 4035.487549,984.089844 
	C4041.566406,983.359436 4042.421387,980.769592 4042.281250,973.058167 
	C4042.155273,966.128723 4040.296631,962.512085 4034.783203,962.063904 
	C4024.736084,961.247131 4014.608887,961.441040 4004.623535,961.919922 
	C4004.623535,970.189880 4004.623535,977.116272 4005.932617,985.344421 
z"/>
<path fill="#070707" opacity="1.000000" stroke="none" 
	d="
M4005.278076,984.693542 
	C4004.623535,977.116272 4004.623535,970.189880 4004.623535,961.919922 
	C4014.608887,961.441040 4024.736084,961.247131 4034.783203,962.063904 
	C4040.296631,962.512085 4042.155273,966.128723 4042.281250,973.058167 
	C4042.421387,980.769592 4041.566406,983.359436 4035.487549,984.089844 
	C4025.726318,985.262695 4015.793213,985.000366 4005.278076,984.693542 
z"/>
</svg>