<svg width="531" height="258" version="1.1" xmlns="http://www.w3.org/2000/svg"><path fill="rgb(167,58,72)" stroke="rgb(167,58,72)" stroke-width="1" opacity="0.9098039215686274" d="M 454.5 75 L 453.5 77 L 454.5 75 Z "></path><path fill="rgb(167,58,72)" stroke="rgb(167,58,72)" stroke-width="1" opacity="0.9098039215686274" d="M 460.5 75 L 461.5 77 L 460.5 75 Z "></path><path fill="rgb(167,58,72)" stroke="rgb(167,58,72)" stroke-width="1" opacity="0.9098039215686274" d="M 456.5 76 L 459 76.5 L 456.5 77 L 456.5 76 Z "></path><path fill="rgb(167,58,72)" stroke="rgb(167,58,72)" stroke-width="1" opacity="0.9098039215686274" d="M 459.5 81 Q 462.5 82.5 459.5 84 L 459.5 81 Z "></path><path fill="rgb(167,58,72)" stroke="rgb(167,58,72)" stroke-width="1" opacity="0.9098039215686274" d="M 454.5 82 L 455.5 84 L 454.5 82 Z "></path><path fill="rgb(167,58,72)" stroke="rgb(167,58,72)" stroke-width="1" opacity="0.9098039215686274" d="M 446.5 86 L 447.5 88 L 446.5 86 Z "></path><path fill="rgb(167,58,72)" stroke="rgb(167,58,72)" stroke-width="1" opacity="0.9098039215686274" d="M 200.5 97 L 201.5 99 L 200.5 97 Z "></path><path fill="rgb(167,58,72)" stroke="rgb(167,58,72)" stroke-width="1" opacity="0.9098039215686274" d="M 179.5 134 L 182.5 138 L 179.5 134 Z "></path><path fill="rgb(167,58,72)" stroke="rgb(167,58,72)" stroke-width="1" opacity="0.9098039215686274" d="M 201.5 135 L 203.5 138 L 201.5 135 Z "></path><path fill="rgb(167,58,72)" stroke="rgb(167,58,72)" stroke-width="1" opacity="0.9098039215686274" d="M 333.5 139 L 334.5 141 L 333.5 139 Z "></path><path fill="rgb(167,58,72)" stroke="rgb(167,58,72)" stroke-width="1" opacity="0.9098039215686274" d="M 285.5 141 L 287.5 144 L 285.5 141 Z "></path><path fill="rgb(167,58,72)" stroke="rgb(167,58,72)" stroke-width="1" opacity="0.9098039215686274" d="M 268.5 145 L 272.5 150 L 268.5 145 Z "></path><path fill="rgb(167,58,72)" stroke="rgb(167,58,72)" stroke-width="1" opacity="0.9098039215686274" d="M 215.5 150 L 217.5 153 L 215.5 150 Z "></path><path fill="rgb(167,58,72)" stroke="rgb(167,58,72)" stroke-width="1" opacity="0.9098039215686274" d="M 196.5 152 L 200.5 157 L 196.5 152 Z "></path><path fill="rgb(167,58,72)" stroke="rgb(167,58,72)" stroke-width="1" opacity="0.9098039215686274" d="M 300.5 157 L 302.5 160 L 300.5 157 Z "></path><path fill="rgb(0,0,0)" stroke="rgb(0,0,0)" stroke-width="1" opacity="0.23137254901960785" d="M 492.5 11 Q 507.1 13.9 514 24.5 L 520 38.5 L 520 218.5 Q 517.2 231.7 508.5 239 L 498.5 245 L 490.5 247 L 40.5 247 Q 26.4 244.6 19 235.5 Q 13.2 230.3 12 220.5 L 13 220.5 Q 15.6 227.9 21.5 232 L 28.5 236 L 36.5 238 L 484.5 238 Q 499 235.5 506 225.5 L 511 213.5 L 511 34.5 Q 508.1 20.4 497.5 14 L 492.5 12 L 492.5 11 Z "></path><path fill="rgb(0,0,0)" stroke="rgb(0,0,0)" stroke-width="1" opacity="0.23137254901960785" d="M 20.5 16 L 17.5 20 L 20.5 16 Z "></path><path fill="rgb(217,14,41)" stroke="rgb(217,14,41)" stroke-width="1" opacity="1" d="M 33.5 10 L 487.5 10 Q 500.1 12.9 506 22.5 L 510 31.5 Q 508.5 37 511 38.5 L 511 209.5 Q 508.5 211 510 216.5 L 501.5 230 L 488.5 237 L 32.5 237 Q 22.9 234.1 17 227.5 Q 11.7 221.8 10 212.5 L 10 34.5 Q 12.9 20.4 23.5 14 L 33.5 10 Z M 153 75 L 144 83 L 143 78 L 142 76 L 126 76 L 112 90 L 112 142 L 96 142 L 92 140 L 88 135 L 88 76 L 71 76 L 58 88 L 58 142 Q 61 153 68 161 Q 76 170 91 173 L 130 173 L 138 166 L 143 161 L 143 139 L 160 139 L 162 140 L 192 172 L 214 172 L 227 161 L 205 138 L 204 134 L 207 134 L 213 130 L 219 122 L 221 121 L 221 140 L 240 140 L 271 173 L 294 173 L 306 163 L 302 157 L 283 137 L 290 133 L 299 123 Q 298 145 307 157 Q 314 167 328 172 L 333 173 L 371 173 L 377 165 L 378 165 L 378 173 L 399 173 L 410 161 L 410 156 L 427 156 L 427 172 L 429 173 L 449 173 L 459 161 L 459 108 L 456 95 L 453 90 L 447 83 Q 440 79 431 77 L 392 77 L 382 86 L 381 79 L 380 77 L 313 77 L 301 89 L 288 79 L 275 76 L 233 76 L 229 79 L 221 87 L 221 89 L 219 87 L 211 79 L 198 75 L 153 75 Z M 455 75 Q 451 77 452 83 L 457 86 Q 461 86 463 83 L 462 77 Q 461 73 455 75 Z "></path><path fill="rgb(217,14,41)" stroke="rgb(217,14,41)" stroke-width="1" opacity="1" d="M 459.5 77 Q 461.8 77.8 461 81.5 L 459 80.5 L 460 78.5 L 459.5 77 Z "></path><path fill="rgb(217,14,41)" stroke="rgb(217,14,41)" stroke-width="1" opacity="1" d="M 454.5 78 L 455 81.5 L 454 81.5 L 454.5 78 Z "></path><path fill="rgb(217,14,41)" stroke="rgb(217,14,41)" stroke-width="1" opacity="1" d="M 457.5 82 L 458.5 84 L 456 83.5 L 457.5 82 Z "></path><path fill="rgb(217,14,41)" stroke="rgb(217,14,41)" stroke-width="1" opacity="1" d="M 377.5 101 L 378 110 L 311.5 110 L 300.5 120 L 301 118.5 L 303 109 L 368.5 109 L 377.5 101 Z "></path><path fill="rgb(217,14,41)" stroke="rgb(217,14,41)" stroke-width="1" opacity="1" d="M 143 108 L 198 108.5 L 150.5 109 L 143.5 116 L 143 108 Z "></path><path fill="rgb(217,14,41)" stroke="rgb(217,14,41)" stroke-width="1" opacity="1" d="M 224.5 109 L 278 109.5 L 229.5 110 L 226 113.5 L 221.5 119 L 221 117.5 L 224.5 109 Z "></path><path fill="rgb(217,14,41)" stroke="rgb(217,14,41)" stroke-width="1" opacity="1" d="M 409 109 L 422.5 109 L 428 113.5 L 428 129 L 409 129 L 409 109 Z "></path><path fill="rgb(217,14,41)" stroke="rgb(217,14,41)" stroke-width="1" opacity="1" d="M 377.5 130 L 378 142 L 341 141.5 L 367.5 141 L 376 132.5 L 377.5 130 Z "></path><path fill="rgb(203,199,199)" stroke="rgb(203,199,199)" stroke-width="1" opacity="1" d="M 455.5 75 L 456 77 Q 459.7 78.5 459 75.5 L 460 75.5 L 461 77.5 L 459.5 80 L 458.5 78 L 456 79.5 Q 456.8 77.3 454.5 78 L 455 76.5 L 455.5 75 Z "></path><path fill="rgb(203,199,199)" stroke="rgb(203,199,199)" stroke-width="1" opacity="1" d="M 152.5 78 L 153 94.5 L 152 94.5 L 152.5 78 Z "></path><path fill="rgb(203,199,199)" stroke="rgb(203,199,199)" stroke-width="1" opacity="1" d="M 197.5 78 L 200 78.5 L 197.5 79 L 197.5 78 Z "></path><path fill="rgb(203,199,199)" stroke="rgb(203,199,199)" stroke-width="1" opacity="1" d="M 452.5 78 L 454 82 Q 450.2 83.2 452.5 78 Z "></path><path fill="rgb(203,199,199)" stroke="rgb(203,199,199)" stroke-width="1" opacity="1" d="M 462.5 78 L 463 82 Q 460 83.3 461 79.5 L 462.5 78 Z "></path><path fill="rgb(203,199,199)" stroke="rgb(203,199,199)" stroke-width="1" opacity="1" d="M 71.5 79 L 86 79.5 L 71 80 L 70.5 136 L 70 80.5 L 71.5 79 Z "></path><path fill="rgb(203,199,199)" stroke="rgb(203,199,199)" stroke-width="1" opacity="1" d="M 125.5 79 L 140.5 79 L 141 79.5 L 141 161 L 92 160.5 L 140 160 L 140 80.5 L 139.5 80 L 125.5 80 L 125.5 79 Z "></path><path fill="rgb(203,199,199)" stroke="rgb(203,199,199)" stroke-width="1" opacity="1" d="M 232.5 79 L 279 79.5 L 232.5 80 L 232.5 79 Z "></path><path fill="rgb(203,199,199)" stroke="rgb(203,199,199)" stroke-width="1" opacity="1" d="M 312.5 79 L 377.5 79 L 379 80.5 L 379 97.5 L 377.5 99 L 312 98.5 L 378 98 L 378 80.5 L 377.5 80 L 312.5 80 L 312.5 79 Z "></path><path fill="rgb(203,199,199)" stroke="rgb(203,199,199)" stroke-width="1" opacity="1" d="M 391.5 79 L 430 79.5 L 391.5 80 L 391.5 79 Z "></path><path fill="rgb(203,199,199)" stroke="rgb(203,199,199)" stroke-width="1" opacity="1" d="M 456 81 L 458 81.5 L 456 82.5 L 456 81 Z "></path><path fill="rgb(203,199,199)" stroke="rgb(203,199,199)" stroke-width="1" opacity="1" d="M 453.5 83 L 454.5 85 L 453.5 83 Z "></path><path fill="rgb(203,199,199)" stroke="rgb(203,199,199)" stroke-width="1" opacity="1" d="M 461.5 83 L 460.5 85 L 461.5 83 Z "></path><path fill="rgb(203,199,199)" stroke="rgb(203,199,199)" stroke-width="1" opacity="1" d="M 443.5 84 L 444.5 86 L 443.5 84 Z "></path><path fill="rgb(203,199,199)" stroke="rgb(203,199,199)" stroke-width="1" opacity="1" d="M 457.5 84 L 458.5 86 L 456 85.5 L 457.5 84 Z "></path><path fill="rgb(203,199,199)" stroke="rgb(203,199,199)" stroke-width="1" opacity="1" d="M 213.5 85 L 214.5 87 L 213.5 85 Z "></path><path fill="rgb(203,199,199)" stroke="rgb(203,199,199)" stroke-width="1" opacity="1" d="M 291.5 85 L 295.5 90 L 291.5 85 Z "></path><path fill="rgb(203,199,199)" stroke="rgb(203,199,199)" stroke-width="1" opacity="1" d="M 216.5 89 L 217.5 91 L 216.5 89 Z "></path><path fill="rgb(203,199,199)" stroke="rgb(203,199,199)" stroke-width="1" opacity="1" d="M 296.5 91 L 297.5 93 L 296.5 91 Z "></path><path fill="rgb(203,199,199)" stroke="rgb(203,199,199)" stroke-width="1" opacity="1" d="M 452.5 94 L 454 96.5 L 453 96.5 L 452.5 94 Z "></path><path fill="rgb(203,199,199)" stroke="rgb(203,199,199)" stroke-width="1" opacity="1" d="M 407.5 98 L 408 131 L 440 131.5 L 407 132 L 407.5 98 Z "></path><path fill="rgb(203,199,199)" stroke="rgb(203,199,199)" stroke-width="1" opacity="1" d="M 434.5 100 L 437.5 104 L 434.5 100 Z "></path><path fill="rgb(203,199,199)" stroke="rgb(203,199,199)" stroke-width="1" opacity="1" d="M 203.5 101 L 204 104.5 L 203 104.5 L 203.5 101 Z "></path><path fill="rgb(203,199,199)" stroke="rgb(203,199,199)" stroke-width="1" opacity="1" d="M 300.5 101 L 301 107.5 L 300 107.5 L 300.5 101 Z "></path><path fill="rgb(203,199,199)" stroke="rgb(203,199,199)" stroke-width="1" opacity="1" d="M 201.5 108 L 199.5 111 L 201.5 108 Z "></path><path fill="rgb(203,199,199)" stroke="rgb(203,199,199)" stroke-width="1" opacity="1" d="M 153.5 111 L 197 111.5 L 153 112 L 152.5 128 L 152 112.5 L 153.5 111 Z "></path><path fill="rgb(203,199,199)" stroke="rgb(203,199,199)" stroke-width="1" opacity="1" d="M 232.5 112 L 277 112.5 L 232.5 113 L 232.5 112 Z "></path><path fill="rgb(203,199,199)" stroke="rgb(203,199,199)" stroke-width="1" opacity="1" d="M 312.5 112 L 377.5 112 L 379 113.5 L 379 127.5 L 377.5 129 L 329 128.5 L 378 128 L 378 113.5 L 377.5 113 L 312.5 113 L 312.5 112 Z "></path><path fill="rgb(203,199,199)" stroke="rgb(203,199,199)" stroke-width="1" opacity="1" d="M 296.5 117 L 295.5 119 L 296.5 117 Z "></path><path fill="rgb(203,199,199)" stroke="rgb(203,199,199)" stroke-width="1" opacity="1" d="M 215.5 118 L 212.5 122 L 215.5 118 Z "></path><path fill="rgb(203,199,199)" stroke="rgb(203,199,199)" stroke-width="1" opacity="1" d="M 290.5 123 L 289.5 125 L 290.5 123 Z "></path><path fill="rgb(203,199,199)" stroke="rgb(203,199,199)" stroke-width="1" opacity="1" d="M 195.5 129 L 200.5 135 L 195.5 129 Z "></path><path fill="rgb(203,199,199)" stroke="rgb(203,199,199)" stroke-width="1" opacity="1" d="M 253.5 129 L 262.5 139 L 253.5 129 Z "></path><path fill="rgb(203,199,199)" stroke="rgb(203,199,199)" stroke-width="1" opacity="1" d="M 276.5 132 L 284.5 141 L 276.5 132 Z "></path><path fill="rgb(203,199,199)" stroke="rgb(203,199,199)" stroke-width="1" opacity="1" d="M 312.5 132 L 313 134.5 L 312 134.5 L 312.5 132 Z "></path><path fill="rgb(203,199,199)" stroke="rgb(203,199,199)" stroke-width="1" opacity="1" d="M 331.5 137 L 332.5 139 L 331.5 137 Z "></path><path fill="rgb(203,199,199)" stroke="rgb(203,199,199)" stroke-width="1" opacity="1" d="M 183.5 138 L 191.5 147 L 183.5 138 Z "></path><path fill="rgb(203,199,199)" stroke="rgb(203,199,199)" stroke-width="1" opacity="1" d="M 88.5 139 L 91.5 143 L 88.5 139 Z "></path><path fill="rgb(203,199,199)" stroke="rgb(203,199,199)" stroke-width="1" opacity="1" d="M 335.5 141 L 336.5 143 L 335.5 141 Z "></path><path fill="rgb(203,199,199)" stroke="rgb(203,199,199)" stroke-width="1" opacity="1" d="M 207.5 142 L 214.5 150 L 207.5 142 Z "></path><path fill="rgb(203,199,199)" stroke="rgb(203,199,199)" stroke-width="1" opacity="1" d="M 407.5 142 L 408 159.5 L 406.5 161 L 391.5 161 L 391.5 160 L 407 160 L 407.5 142 Z "></path><path fill="rgb(203,199,199)" stroke="rgb(203,199,199)" stroke-width="1" opacity="1" d="M 96.5 144 L 125 144.5 L 96.5 145 L 96.5 144 Z "></path><path fill="rgb(203,199,199)" stroke="rgb(203,199,199)" stroke-width="1" opacity="1" d="M 341.5 144 L 377.5 144 L 379 145.5 L 379 159.5 L 377.5 161 L 338 160.5 L 378 160 L 378 145 L 341.5 145 L 341.5 144 Z "></path><path fill="rgb(203,199,199)" stroke="rgb(203,199,199)" stroke-width="1" opacity="1" d="M 74.5 147 L 75.5 149 L 74.5 147 Z "></path><path fill="rgb(203,199,199)" stroke="rgb(203,199,199)" stroke-width="1" opacity="1" d="M 319.5 148 L 321.5 151 L 319.5 148 Z "></path><path fill="rgb(203,199,199)" stroke="rgb(203,199,199)" stroke-width="1" opacity="1" d="M 292.5 149 L 299.5 157 L 292.5 149 Z "></path><path fill="rgb(203,199,199)" stroke="rgb(203,199,199)" stroke-width="1" opacity="1" d="M 76.5 150 L 81.5 156 L 76.5 150 Z "></path><path fill="rgb(203,199,199)" stroke="rgb(203,199,199)" stroke-width="1" opacity="1" d="M 273.5 150 L 283.5 160 L 303 160.5 L 283.5 161 L 273.5 150 Z "></path><path fill="rgb(203,199,199)" stroke="rgb(203,199,199)" stroke-width="1" opacity="1" d="M 323.5 152 L 325.5 155 L 323.5 152 Z "></path><path fill="rgb(203,199,199)" stroke="rgb(203,199,199)" stroke-width="1" opacity="1" d="M 201.5 157 L 202.5 159 L 201.5 157 Z "></path><path fill="rgb(203,199,199)" stroke="rgb(203,199,199)" stroke-width="1" opacity="1" d="M 221.5 157 L 223 160 L 204 159.5 L 222 158.5 L 221.5 157 Z "></path><path fill="rgb(203,199,199)" stroke="rgb(203,199,199)" stroke-width="1" opacity="1" d="M 440.5 160 L 456 160.5 L 440.5 161 L 440.5 160 Z "></path><path fill="rgb(89,35,41)" stroke="rgb(89,35,41)" stroke-width="1" opacity="0.9254901960784314" d="M 510.5 34 L 511 37.5 L 510 37.5 L 510.5 34 Z "></path><path fill="rgb(89,35,41)" stroke="rgb(89,35,41)" stroke-width="1" opacity="0.9254901960784314" d="M 152.5 75 L 198 75.5 L 152.5 76 L 152.5 75 Z "></path><path fill="rgb(89,35,41)" stroke="rgb(89,35,41)" stroke-width="1" opacity="0.9254901960784314" d="M 70.5 76 L 88 76.5 L 70.5 77 L 70.5 76 Z "></path><path fill="rgb(89,35,41)" stroke="rgb(89,35,41)" stroke-width="1" opacity="0.9254901960784314" d="M 125.5 76 L 141.5 76 L 143 77.5 L 143.5 83 L 145 82.5 L 142 84 L 142 77 L 125.5 77 L 125.5 76 Z "></path><path fill="rgb(89,35,41)" stroke="rgb(89,35,41)" stroke-width="1" opacity="0.9254901960784314" d="M 232.5 76 L 275 76.5 L 232.5 77 L 232.5 76 Z "></path><path fill="rgb(89,35,41)" stroke="rgb(89,35,41)" stroke-width="1" opacity="0.9254901960784314" d="M 312.5 77 L 379.5 77 L 381 78.5 L 381.5 86 L 385 83.5 L 380 87 L 380 78.5 L 379.5 78 L 312.5 78 L 312.5 77 Z "></path><path fill="rgb(89,35,41)" stroke="rgb(89,35,41)" stroke-width="1" opacity="0.9254901960784314" d="M 391.5 77 L 431 77.5 L 391.5 78 L 391.5 77 Z "></path><path fill="rgb(89,35,41)" stroke="rgb(89,35,41)" stroke-width="1" opacity="0.9254901960784314" d="M 86.5 79 L 87 133.5 L 86 133.5 L 86.5 79 Z "></path><path fill="rgb(89,35,41)" stroke="rgb(89,35,41)" stroke-width="1" opacity="0.9254901960784314" d="M 228.5 79 L 226.5 82 L 228.5 79 Z "></path><path fill="rgb(89,35,41)" stroke="rgb(89,35,41)" stroke-width="1" opacity="0.9254901960784314" d="M 231.5 79 L 232 96 L 276 96.5 L 232.5 97 L 231 95.5 L 231.5 79 Z "></path><path fill="rgb(89,35,41)" stroke="rgb(89,35,41)" stroke-width="1" opacity="0.9254901960784314" d="M 213.5 81 L 214.5 83 L 213.5 81 Z "></path><path fill="rgb(89,35,41)" stroke="rgb(89,35,41)" stroke-width="1" opacity="0.9254901960784314" d="M 291.5 81 L 292.5 83 L 291.5 81 Z "></path><path fill="rgb(89,35,41)" stroke="rgb(89,35,41)" stroke-width="1" opacity="0.9254901960784314" d="M 446.5 83 L 447.5 85 L 446.5 83 Z "></path><path fill="rgb(89,35,41)" stroke="rgb(89,35,41)" stroke-width="1" opacity="0.9254901960784314" d="M 217.5 85 L 218.5 87 L 217.5 85 Z "></path><path fill="rgb(89,35,41)" stroke="rgb(89,35,41)" stroke-width="1" opacity="0.9254901960784314" d="M 59.5 86 L 58.5 88 L 59.5 86 Z "></path><path fill="rgb(89,35,41)" stroke="rgb(89,35,41)" stroke-width="1" opacity="0.9254901960784314" d="M 298.5 88 L 299.5 90 L 298.5 88 Z "></path><path fill="rgb(89,35,41)" stroke="rgb(89,35,41)" stroke-width="1" opacity="0.9254901960784314" d="M 153.5 95 L 197 95.5 L 153.5 96 L 153.5 95 Z "></path><path fill="rgb(89,35,41)" stroke="rgb(89,35,41)" stroke-width="1" opacity="0.9254901960784314" d="M 408.5 98 L 428 98.5 L 408.5 99 L 408.5 98 Z "></path><path fill="rgb(89,35,41)" stroke="rgb(89,35,41)" stroke-width="1" opacity="0.9254901960784314" d="M 221.5 100 L 222 105.5 L 221 105.5 L 221.5 100 Z "></path><path fill="rgb(89,35,41)" stroke="rgb(89,35,41)" stroke-width="1" opacity="0.9254901960784314" d="M 282.5 103 L 283 105.5 L 282 105.5 L 282.5 103 Z "></path><path fill="rgb(89,35,41)" stroke="rgb(89,35,41)" stroke-width="1" opacity="0.9254901960784314" d="M 374.5 103 L 373.5 105 L 374.5 103 Z "></path><path fill="rgb(89,35,41)" stroke="rgb(89,35,41)" stroke-width="1" opacity="0.9254901960784314" d="M 456.5 105 L 457 160.5 L 456 160.5 L 456.5 105 Z "></path><path fill="rgb(89,35,41)" stroke="rgb(89,35,41)" stroke-width="1" opacity="0.9254901960784314" d="M 458.5 107 L 459 160.5 L 458 160.5 L 458.5 107 Z "></path><path fill="rgb(89,35,41)" stroke="rgb(89,35,41)" stroke-width="1" opacity="0.9254901960784314" d="M 142.5 108 L 144 116.5 L 142 117 L 142.5 108 Z "></path><path fill="rgb(89,35,41)" stroke="rgb(89,35,41)" stroke-width="1" opacity="0.9254901960784314" d="M 198.5 108 L 197.5 110 L 150 109.5 L 197.5 109 L 198.5 108 Z "></path><path fill="rgb(89,35,41)" stroke="rgb(89,35,41)" stroke-width="1" opacity="0.9254901960784314" d="M 303.5 108 L 369 108.5 L 303.5 109 L 303.5 108 Z "></path><path fill="rgb(89,35,41)" stroke="rgb(89,35,41)" stroke-width="1" opacity="0.9254901960784314" d="M 409.5 108 L 421 108.5 L 409.5 109 L 409.5 108 Z "></path><path fill="rgb(89,35,41)" stroke="rgb(89,35,41)" stroke-width="1" opacity="0.9254901960784314" d="M 280.5 109 L 279.5 111 L 280.5 109 Z "></path><path fill="rgb(89,35,41)" stroke="rgb(89,35,41)" stroke-width="1" opacity="0.9254901960784314" d="M 439.5 109 L 440 130.5 L 439 130.5 L 439.5 109 Z "></path><path fill="rgb(89,35,41)" stroke="rgb(89,35,41)" stroke-width="1" opacity="0.9254901960784314" d="M 229.5 110 L 277 110.5 L 229.5 111 L 226.5 114 L 229.5 110 Z "></path><path fill="rgb(89,35,41)" stroke="rgb(89,35,41)" stroke-width="1" opacity="0.9254901960784314" d="M 311.5 110 L 378 110.5 L 311.5 111 L 311.5 110 Z "></path><path fill="rgb(89,35,41)" stroke="rgb(89,35,41)" stroke-width="1" opacity="0.9254901960784314" d="M 425.5 110 L 427.5 113 L 425.5 110 Z "></path><path fill="rgb(89,35,41)" stroke="rgb(89,35,41)" stroke-width="1" opacity="0.9254901960784314" d="M 428.5 115 L 429 130 L 409 129.5 L 428 129 L 428.5 115 Z "></path><path fill="rgb(89,35,41)" stroke="rgb(89,35,41)" stroke-width="1" opacity="0.9254901960784314" d="M 304.5 116 L 300.5 121 L 300.5 118 L 301.5 119 L 304.5 116 Z "></path><path fill="rgb(89,35,41)" stroke="rgb(89,35,41)" stroke-width="1" opacity="0.9254901960784314" d="M 294.5 120 L 292.5 123 L 294.5 120 Z "></path><path fill="rgb(89,35,41)" stroke="rgb(89,35,41)" stroke-width="1" opacity="0.9254901960784314" d="M 298.5 122 L 300 122.5 L 300 136.5 L 299 136.5 L 299 123.5 L 298.5 122 Z "></path><path fill="rgb(89,35,41)" stroke="rgb(89,35,41)" stroke-width="1" opacity="0.9254901960784314" d="M 297.5 124 L 296.5 126 L 297.5 124 Z "></path><path fill="rgb(89,35,41)" stroke="rgb(89,35,41)" stroke-width="1" opacity="0.9254901960784314" d="M 216.5 125 L 212.5 130 L 216.5 125 Z "></path><path fill="rgb(89,35,41)" stroke="rgb(89,35,41)" stroke-width="1" opacity="0.9254901960784314" d="M 153.5 128 L 174 128.5 L 153.5 129 L 153.5 128 Z "></path><path fill="rgb(89,35,41)" stroke="rgb(89,35,41)" stroke-width="1" opacity="0.9254901960784314" d="M 232.5 129 L 253 129.5 L 232.5 130 L 232.5 129 Z "></path><path fill="rgb(89,35,41)" stroke="rgb(89,35,41)" stroke-width="1" opacity="0.9254901960784314" d="M 276.5 129 L 278 129.5 L 276 130.5 L 276.5 132 Q 273.5 130.5 276.5 129 Z "></path><path fill="rgb(89,35,41)" stroke="rgb(89,35,41)" stroke-width="1" opacity="0.9254901960784314" d="M 175.5 130 L 178.5 134 L 175.5 130 Z "></path><path fill="rgb(89,35,41)" stroke="rgb(89,35,41)" stroke-width="1" opacity="0.9254901960784314" d="M 290.5 131 L 289.5 133 L 290.5 131 Z "></path><path fill="rgb(89,35,41)" stroke="rgb(89,35,41)" stroke-width="1" opacity="0.9254901960784314" d="M 375.5 132 L 372.5 136 L 375.5 132 Z "></path><path fill="rgb(89,35,41)" stroke="rgb(89,35,41)" stroke-width="1" opacity="0.9254901960784314" d="M 203.5 135 L 204.5 137 L 203.5 135 Z "></path><path fill="rgb(89,35,41)" stroke="rgb(89,35,41)" stroke-width="1" opacity="0.9254901960784314" d="M 204.5 138 L 207.5 142 L 204.5 138 Z "></path><path fill="rgb(89,35,41)" stroke="rgb(89,35,41)" stroke-width="1" opacity="0.9254901960784314" d="M 58.5 139 L 59 141.5 L 58 141.5 L 58.5 139 Z "></path><path fill="rgb(89,35,41)" stroke="rgb(89,35,41)" stroke-width="1" opacity="0.9254901960784314" d="M 142.5 139 L 143 160.5 L 142 160.5 L 142.5 139 Z "></path><path fill="rgb(89,35,41)" stroke="rgb(89,35,41)" stroke-width="1" opacity="0.9254901960784314" d="M 263.5 140 L 267.5 145 L 263.5 140 Z "></path><path fill="rgb(89,35,41)" stroke="rgb(89,35,41)" stroke-width="1" opacity="0.9254901960784314" d="M 286.5 140 L 290 143.5 L 289 144.5 L 291.5 148 L 288 144.5 L 289 143.5 L 286.5 140 Z "></path><path fill="rgb(89,35,41)" stroke="rgb(89,35,41)" stroke-width="1" opacity="0.9254901960784314" d="M 338.5 140 L 368 140.5 L 341.5 141 L 339.5 142 L 338.5 140 Z "></path><path fill="rgb(89,35,41)" stroke="rgb(89,35,41)" stroke-width="1" opacity="0.9254901960784314" d="M 97.5 142 L 111 142.5 L 97.5 143 L 97.5 142 Z "></path><path fill="rgb(89,35,41)" stroke="rgb(89,35,41)" stroke-width="1" opacity="0.9254901960784314" d="M 163.5 142 L 167.5 147 L 163.5 142 Z "></path><path fill="rgb(89,35,41)" stroke="rgb(89,35,41)" stroke-width="1" opacity="0.9254901960784314" d="M 408.5 142 L 438.5 142 L 440 143.5 L 439.5 161 L 439 143 L 408.5 143 L 408.5 142 Z "></path><path fill="rgb(89,35,41)" stroke="rgb(89,35,41)" stroke-width="1" opacity="0.9254901960784314" d="M 214.5 147 L 216.5 150 L 214.5 147 Z "></path><path fill="rgb(89,35,41)" stroke="rgb(89,35,41)" stroke-width="1" opacity="0.9254901960784314" d="M 192.5 148 L 195.5 152 L 192.5 148 Z "></path><path fill="rgb(89,35,41)" stroke="rgb(89,35,41)" stroke-width="1" opacity="0.9254901960784314" d="M 250.5 151 L 255.5 157 L 250.5 151 Z "></path><path fill="rgb(89,35,41)" stroke="rgb(89,35,41)" stroke-width="1" opacity="0.9254901960784314" d="M 321.5 151 L 322.5 153 L 321.5 151 Z "></path><path fill="rgb(89,35,41)" stroke="rgb(89,35,41)" stroke-width="1" opacity="0.9254901960784314" d="M 218.5 153 L 220.5 156 L 218.5 153 Z "></path><path fill="rgb(89,35,41)" stroke="rgb(89,35,41)" stroke-width="1" opacity="0.9254901960784314" d="M 298.5 153 L 301.5 157 L 298.5 153 Z "></path><path fill="rgb(89,35,41)" stroke="rgb(89,35,41)" stroke-width="1" opacity="0.9254901960784314" d="M 409 155 L 428 155 L 428 172 L 448.5 172 L 451 170.5 L 448.5 173 L 428.5 173 L 427 171.5 L 427 156 L 410.5 156 Q 409.5 156 410 160.5 L 409 160.5 L 409 155 Z "></path><path fill="rgb(89,35,41)" stroke="rgb(89,35,41)" stroke-width="1" opacity="0.9254901960784314" d="M 307.5 156 L 308.5 158 L 307.5 156 Z "></path><path fill="rgb(89,35,41)" stroke="rgb(89,35,41)" stroke-width="1" opacity="0.9254901960784314" d="M 68.5 160 L 71.5 164 L 68.5 160 Z "></path><path fill="rgb(89,35,41)" stroke="rgb(89,35,41)" stroke-width="1" opacity="0.9254901960784314" d="M 181.5 161 L 185.5 166 L 181.5 161 Z "></path><path fill="rgb(89,35,41)" stroke="rgb(89,35,41)" stroke-width="1" opacity="0.9254901960784314" d="M 140.5 162 L 137.5 166 L 140.5 162 Z "></path><path fill="rgb(89,35,41)" stroke="rgb(89,35,41)" stroke-width="1" opacity="0.9254901960784314" d="M 223.5 163 L 222.5 165 L 223.5 163 Z "></path><path fill="rgb(89,35,41)" stroke="rgb(89,35,41)" stroke-width="1" opacity="0.9254901960784314" d="M 316.5 165 L 317.5 167 L 316.5 165 Z "></path><path fill="rgb(89,35,41)" stroke="rgb(89,35,41)" stroke-width="1" opacity="0.9254901960784314" d="M 376.5 165 L 375.5 167 L 376.5 165 Z "></path><path fill="rgb(89,35,41)" stroke="rgb(89,35,41)" stroke-width="1" opacity="0.9254901960784314" d="M 454.5 165 L 453.5 167 L 454.5 165 Z "></path><path fill="rgb(89,35,41)" stroke="rgb(89,35,41)" stroke-width="1" opacity="0.9254901960784314" d="M 404.5 166 L 403.5 168 L 404.5 166 Z "></path><path fill="rgb(89,35,41)" stroke="rgb(89,35,41)" stroke-width="1" opacity="0.9254901960784314" d="M 299.5 167 L 298.5 169 L 299.5 167 Z "></path><path fill="rgb(89,35,41)" stroke="rgb(89,35,41)" stroke-width="1" opacity="0.9254901960784314" d="M 217.5 168 L 216.5 170 L 217.5 168 Z "></path><path fill="rgb(89,35,41)" stroke="rgb(89,35,41)" stroke-width="1" opacity="0.9254901960784314" d="M 268.5 170 L 270.5 172 L 294 172.5 L 270.5 173 L 268.5 170 Z "></path><path fill="rgb(89,35,41)" stroke="rgb(89,35,41)" stroke-width="1" opacity="0.9254901960784314" d="M 191.5 171 L 214 171.5 L 191.5 172 L 191.5 171 Z "></path><path fill="rgb(89,35,41)" stroke="rgb(89,35,41)" stroke-width="1" opacity="0.9254901960784314" d="M 371.5 171 L 370.5 173 L 332 172.5 L 370.5 172 L 371.5 171 Z "></path><path fill="rgb(89,35,41)" stroke="rgb(89,35,41)" stroke-width="1" opacity="0.9254901960784314" d="M 90.5 172 L 130 172.5 L 90.5 173 L 90.5 172 Z "></path><path fill="rgb(89,35,41)" stroke="rgb(89,35,41)" stroke-width="1" opacity="0.9254901960784314" d="M 378.5 172 L 399 172.5 L 378.5 173 L 378.5 172 Z "></path><path fill="rgb(89,35,41)" stroke="rgb(89,35,41)" stroke-width="1" opacity="0.9254901960784314" d="M 510.5 210 L 511 213.5 L 510 213.5 L 510.5 210 Z "></path><path fill="rgb(89,35,41)" stroke="rgb(89,35,41)" stroke-width="1" opacity="0.9254901960784314" d="M 505.5 225 L 503.5 228 L 505.5 225 Z "></path><path fill="rgb(89,35,41)" stroke="rgb(89,35,41)" stroke-width="1" opacity="0.9254901960784314" d="M 20.5 230 L 21.5 232 L 20.5 230 Z "></path><path fill="rgb(89,35,41)" stroke="rgb(89,35,41)" stroke-width="1" opacity="0.9254901960784314" d="M 500.5 230 L 499.5 232 L 500.5 230 Z "></path><path fill="rgb(89,35,41)" stroke="rgb(89,35,41)" stroke-width="1" opacity="0.9254901960784314" d="M 36.5 237 L 485 237.5 L 36.5 238 L 36.5 237 Z "></path><path fill="rgb(29,29,27)" stroke="rgb(29,29,27)" stroke-width="1" opacity="1" d="M 151.5 76 L 201.5 76 Q 211.2 78.3 217 84.5 L 220.5 90 Q 220.6 83.6 225.5 82 L 231.5 77 L 279.5 77 Q 291.6 79.4 298 87.5 L 299.5 90 L 311.5 78 L 380 78 L 380 86.5 L 381.5 87 L 390.5 78 L 434.5 78 Q 445.8 80.8 452 88.5 L 458 102.5 L 458 161.5 L 448.5 172 L 428 172 L 428 155 L 409 155 L 409 161.5 L 399.5 172 L 378 172 L 378 164.5 L 375 166.5 L 370.5 172 L 329.5 172 Q 316 168.5 309 158.5 Q 297.5 146.8 300 122 Q 297.3 120.9 298 123.5 L 291.5 131 L 283 136.5 L 306 161.5 L 294.5 172 L 270.5 172 L 239.5 140 L 221 140 L 221 119.5 L 220 119.5 Q 217 127 210.5 131 L 203 135.5 L 226 159.5 L 226 161.5 L 214.5 171 L 190.5 171 L 160.5 139 L 142 139 L 142 161.5 L 140.5 162 L 130.5 172 L 87.5 172 Q 72.8 167.8 65 156.5 L 61 149.5 L 58 138.5 L 58 88.5 L 69.5 77 L 88 77 L 88 135.5 L 92.5 141 Q 98.6 144.9 110.5 143 L 112 141.5 L 112 89.5 L 124.5 77 L 142 77 L 142 83.5 L 143.5 84 L 151.5 76 Z M 152 78 L 152 95 L 154 96 L 199 96 L 203 101 L 202 108 L 198 111 L 152 111 L 152 128 L 154 129 L 175 129 L 175 131 L 204 160 L 224 160 L 196 130 L 211 124 Q 220 118 222 106 Q 222 94 217 89 Q 211 81 202 78 L 152 78 Z M 70 79 L 70 137 L 75 150 Q 81 158 92 161 L 141 161 L 141 79 L 126 79 L 125 80 L 125 144 L 96 144 L 92 142 L 87 137 L 87 80 L 87 79 L 70 79 Z M 231 79 L 231 96 L 233 97 L 278 97 L 280 98 Q 283 100 282 108 L 278 112 L 233 112 Q 230 113 232 115 L 232 130 L 254 130 L 282 160 L 283 161 L 303 161 L 303 160 L 276 131 L 285 128 L 293 123 Q 299 118 301 109 L 301 100 L 297 91 Q 291 82 280 79 L 231 79 Z M 312 79 L 312 99 L 313 99 L 379 99 L 379 80 L 379 79 L 312 79 Z M 391 79 L 391 161 L 408 161 L 408 143 L 439 143 L 439 161 L 457 161 L 457 106 L 455 98 L 451 91 Q 444 82 432 79 L 391 79 Z M 378 101 L 370 108 L 303 108 L 302 116 L 300 119 L 301 121 L 311 111 L 378 111 L 378 101 Z M 142 108 L 142 117 Q 145 118 144 116 L 150 110 L 198 110 L 199 109 L 142 108 Z M 223 109 L 221 117 L 222 119 L 230 111 L 277 111 L 278 110 L 223 109 Z M 312 112 L 312 136 L 321 152 Q 327 158 338 161 L 379 161 L 379 144 L 341 144 L 337 142 Q 330 138 329 130 L 379 129 L 379 113 L 379 112 L 312 112 Z M 378 130 L 372 137 L 369 140 L 338 141 L 340 142 L 378 142 L 378 130 Z "></path><path fill="rgb(29,29,27)" stroke="rgb(29,29,27)" stroke-width="1" opacity="1" d="M 408 99 L 430.5 99 L 438 104.5 L 439 106.5 L 439 131 L 408 131 L 408 99 Z M 409 108 L 409 130 L 429 130 L 429 116 L 428 113 Q 423 106 409 108 Z "></path><path fill="rgb(0,0,0)" stroke="rgb(0,0,0)" stroke-width="1" opacity="0.00784313725490196" d="M 35.5 2 L 495.5 2 Q 511.4 5.6 520 16.5 Q 526.6 24.4 529 36.5 L 529 220.5 Q 525.3 238.8 512.5 248 Q 504.3 253.8 492.5 256 L 38.5 256 L 21.5 250 L 10 239.5 L 4 228.5 L 2 220.5 L 2 36.5 Q 5.7 19.2 17.5 10 Q 24.8 4.3 35.5 2 Z M 33 10 L 21 16 Q 13 22 10 34 L 10 214 L 13 226 L 19 236 Q 26 245 41 247 L 491 247 L 499 245 L 509 239 Q 517 232 520 219 L 520 39 L 514 25 L 506 16 L 498 12 L 489 10 L 33 10 Z "></path><path fill="rgb(0,0,0)" stroke="rgb(0,0,0)" stroke-width="1" opacity="0" d="M 0 0 L 531 0 L 531 258 L 0 258 L 0 0 Z M 36 2 Q 25 4 18 10 Q 6 19 2 37 L 2 221 L 4 229 L 10 240 L 22 250 L 39 256 L 493 256 Q 504 254 513 248 Q 525 239 529 221 L 529 37 Q 527 24 520 17 Q 511 6 496 2 L 36 2 Z "></path><path fill="rgb(255,255,255)" stroke="rgb(255,255,255)" stroke-width="1" opacity="1" d="M 456.5 75 L 459 75.5 L 456.5 76 L 456.5 75 Z "></path><path fill="rgb(255,255,255)" stroke="rgb(255,255,255)" stroke-width="1" opacity="1" d="M 454.5 76 L 454 77.5 L 453.5 79 L 453 77.5 L 454.5 76 Z "></path><path fill="rgb(255,255,255)" stroke="rgb(255,255,255)" stroke-width="1" opacity="1" d="M 460.5 76 L 462 78.5 L 461 78.5 L 460.5 76 Z "></path><path fill="rgb(255,255,255)" stroke="rgb(255,255,255)" stroke-width="1" opacity="1" d="M 153 78 L 196.5 78 Q 197.8 80.3 202.5 79 Q 211.2 81.8 216 88.5 Q 221.9 94.6 221 107.5 Q 218.3 117.8 210.5 123 Q 204.5 127.8 195 128 L 195 129.5 L 222 158.5 L 203.5 159 L 175 129.5 L 175 128 L 153 128 L 153 112 L 196.5 112 L 202 108.5 L 204 101.5 L 199.5 96 L 197.5 95 L 153 95 L 153 78 Z "></path><path fill="rgb(255,255,255)" stroke="rgb(255,255,255)" stroke-width="1" opacity="1" d="M 455.5 78 L 456 80 Q 458.7 81.1 458 78.5 L 459 78.5 L 458.5 83 L 458 81 Q 455.3 79.9 456 82.5 L 455.5 84 L 457 84.5 L 455.5 85 L 453.5 82 L 455 82.5 L 455.5 78 Z "></path><path fill="rgb(255,255,255)" stroke="rgb(255,255,255)" stroke-width="1" opacity="1" d="M 71 80 L 85.5 80 L 86 80.5 L 86 135.5 L 91.5 143 L 96.5 145 L 125 145 L 125 80.5 L 125.5 80 L 140 80 L 140 160 L 90.5 160 Q 80.8 157.3 76 149.5 L 71 138.5 L 71 80 Z "></path><path fill="rgb(255,255,255)" stroke="rgb(255,255,255)" stroke-width="1" opacity="1" d="M 232 80 L 280.5 80 Q 290.8 82.8 296 90.5 Q 301.8 96.2 300 109.5 Q 297.5 118 291.5 123 Q 285.2 128.7 274 129.5 L 302 159.5 L 283.5 160 L 253.5 129 L 232 129 L 232 113 L 276.5 113 L 282 108.5 L 283 101.5 L 281 98 L 277.5 96 L 232 96 L 232 80 Z "></path><path fill="rgb(255,255,255)" stroke="rgb(255,255,255)" stroke-width="1" opacity="1" d="M 312 80 L 377.5 80 L 378 80.5 L 378 98 L 312.5 98 L 312 97.5 L 312 80 Z "></path><path fill="rgb(255,255,255)" stroke="rgb(255,255,255)" stroke-width="1" opacity="1" d="M 391 80 L 432.5 80 Q 444.5 83 451 91.5 L 456 103.5 L 456 160 L 440 160 L 440 142 L 407 142 L 407 160 L 391 160 L 391 80 Z M 407 98 L 407 132 L 440 132 L 440 108 L 438 104 L 431 98 L 407 98 Z "></path><path fill="rgb(255,255,255)" stroke="rgb(255,255,255)" stroke-width="1" opacity="1" d="M 461.5 82 L 459.5 85 L 458 84.5 L 461.5 82 Z "></path><path fill="rgb(255,255,255)" stroke="rgb(255,255,255)" stroke-width="1" opacity="1" d="M 312 113 L 377.5 113 L 378 113.5 L 378 128 L 329.5 128 Q 328.4 128.1 329 133.5 L 336.5 143 L 341.5 145 L 378 145 L 378 160 L 336.5 160 L 322 152 L 316 143.5 L 313 136.5 L 312 113 Z "></path></svg>